<?xml version="1.0" standalone="no"?>
<!DOCTYPE svg PUBLIC "-//W3C//DTD SVG 20010904//EN"
 "http://www.w3.org/TR/2001/REC-SVG-20010904/DTD/svg10.dtd">
<svg version="1.0" xmlns="http://www.w3.org/2000/svg"
 width="1807.000000pt" height="1807.000000pt" viewBox="0 0 1807.000000 1807.000000"
 preserveAspectRatio="xMidYMid meet">
<metadata>
Created by potrace 1.11, written by Peter Selinger 2001-2013
</metadata>
<g transform="translate(0.000000,1807.000000) scale(0.100000,-0.100000)"
fill="#000000" stroke="none">
<path d="M8780 18033 c-312 -7 -740 -46 -1090 -99 -907 -136 -1767 -405 -2598
-809 -972 -474 -1795 -1075 -2566 -1875 -1369 -1420 -2245 -3320 -2445 -5303
-35 -339 -44 -534 -44 -912 0 -378 9 -573 44 -912 131 -1304 551 -2570 1227
-3703 877 -1470 2165 -2666 3699 -3433 2404 -1204 5219 -1269 7678 -180 1550
687 2884 1809 3830 3223 387 577 711 1210 953 1860 499 1340 672 2774 506
4195 -194 1663 -861 3261 -1910 4572 -1145 1431 -2697 2477 -4459 3004 -725
217 -1472 339 -2253 369 -242 9 -314 9 -572 3z m1784 -8934 c3922 -892 7158
-1627 7191 -1634 51 -11 -185 -14 -1515 -14 l-1574 -1 -7176 1630 c-3946 897
-7179 1633 -7185 1635 -5 2 696 4 1559 4 l1570 1 7130 -1621z"/>
</g>
</svg>
