<?xml version="1.0" encoding="UTF-8" standalone="no"?>
<!-- Created with Inkscape (http://www.inkscape.org/) -->

<svg
   xmlns:dc="http://purl.org/dc/elements/1.1/"
   xmlns:cc="http://creativecommons.org/ns#"
   xmlns:rdf="http://www.w3.org/1999/02/22-rdf-syntax-ns#"
   xmlns:svg="http://www.w3.org/2000/svg"
   xmlns="http://www.w3.org/2000/svg"
   xmlns:sodipodi="http://sodipodi.sourceforge.net/DTD/sodipodi-0.dtd"
   xmlns:inkscape="http://www.inkscape.org/namespaces/inkscape"
   width="512mm"
   height="512mm"
   viewBox="0 0 1814.1732 1814.1732"
   id="svg4143"
   version="1.1"
   inkscape:version="0.91 r13725"
   sodipodi:docname="profile.svg">
  <defs
     id="defs4145" />
  <sodipodi:namedview
     id="base"
     pagecolor="#ffffff"
     bordercolor="#666666"
     borderopacity="1.0"
     inkscape:pageopacity="0.0"
     inkscape:pageshadow="2"
     inkscape:zoom="0.35"
     inkscape:cx="742.14286"
     inkscape:cy="880"
     inkscape:document-units="px"
     inkscape:current-layer="layer1"
     showgrid="false"
     inkscape:window-width="1680"
     inkscape:window-height="997"
     inkscape:window-x="-8"
     inkscape:window-y="-8"
     inkscape:window-maximized="1" />
  <metadata
     id="metadata4148">
    <rdf:RDF>
      <cc:Work
         rdf:about="">
        <dc:format>image/svg+xml</dc:format>
        <dc:type
           rdf:resource="http://purl.org/dc/dcmitype/StillImage" />
        <dc:title></dc:title>
      </cc:Work>
    </rdf:RDF>
  </metadata>
  <g
     inkscape:label="Layer 1"
     inkscape:groupmode="layer"
     id="layer1"
     transform="translate(0,761.81102)">
    <g
       id="g4722"
       transform="matrix(1.0223078,0,0,1.0223078,24.462349,-64.717663)">
      <path
         style="fill:#fdfdfd"
         d="m -23.928555,211.4577 0,-896.52405 905.071405,0 905.07135,0 0,896.52405 0,896.5241 -905.07135,0 -905.071405,0 0,-896.5241 z"
         id="path4738"
         inkscape:connector-curvature="0" />
      <path
         style="fill:#d0d0d0"
         d="m -23.928555,385.38952 c 0,-686.56332 0.1658,-722.65497 3.323977,-723.5713 6.051428,-1.75582 164.471658,-5.49725 180.539328,-4.26383 9.2622,0.71101 17.64933,2.44481 20.33319,4.20335 2.83013,1.85438 12.00797,3.61865 24.12269,4.63718 35.36304,2.97306 154.79391,6.12354 240.8364,6.35306 l 84.52398,0.22547 18.04445,-6.35873 c 15.69067,-5.52928 19.7788,-6.24327 31.34035,-5.47366 19.98418,1.33029 28.61167,5.57366 34.34806,16.89385 4.18008,8.24901 8.38878,10.77632 8.38878,5.03742 0,-6.52071 34.04987,-72.81705 49.08618,-95.57258 4.83207,-7.31274 14.56866,-19.54352 21.63684,-27.17949 10.2724,-11.09756 12.85268,-15.09969 12.85836,-19.94386 0.0171,-14.73304 15.51084,-26.29718 41.21262,-30.76041 16.00662,-2.7796 23.34794,-6.8151 23.38948,-12.85711 0.0353,-5.13008 1.44435,-7.3084 7.33085,-11.33286 2.48094,-1.69617 8.93988,-9.33925 14.35322,-16.98463 7.45032,-10.5223 11.16305,-14.1315 15.27635,-14.8504 3.97226,-0.69426 5.92433,-2.4825 7.25696,-6.64797 4.0913,-12.78825 15.27424,-19.89909 24.25147,-15.42066 5.039,2.51378 5.58778,2.39468 8.34322,-1.81066 1.76615,-2.69549 6.56605,-5.54816 11.96409,-7.1105 8.55917,-2.47724 9.1813,-3.12028 12.31279,-12.72641 4.03047,-12.36373 8.64751,-17.50772 20.15658,-22.45701 19.07205,-8.20164 38.53684,-10.75996 81.01312,-10.64783 45.81302,0.12096 61.86872,2.42277 98.88312,14.17636 17.0491,5.41378 32.9368,8.74692 58.204,12.21083 58.1292,7.96899 70.4843,10.98538 101.015,24.6619 60.2121,26.97265 97.0646,51.58048 134.3531,89.71271 34.6649,35.44934 51.3901,58.88695 114.5096,160.46702 30.5354,49.14159 38.0389,62.5947 41.1263,73.73578 4.692,16.93163 7.3186,20.99541 17.1369,26.51363 11.7569,6.60776 22.9269,8.98849 76.6809,16.34358 27.1102,3.70946 52.7523,7.62818 56.9824,8.7083 4.2302,1.08013 30.3417,2.68299 58.0257,3.56194 27.684,0.87893 51.8303,2.18925 53.6585,2.91178 3.1566,1.24758 3.3239,33.95889 3.3239,649.76084 l 0,648.44718 -408.9441,0 c -295.567,0 -409.52495,-0.5809 -411.03924,-2.0952 -1.37127,-1.3713 -5.60415,-1.6169 -12.25123,-0.7109 -5.58584,0.7614 -227.9003,1.7075 -494.03213,2.1025 l -483.876055,0.7182 0,-722.60688 z M 1148.1368,743.22978 c 25.8566,-3.90736 41.348,-7.16531 46.4096,-9.76026 4.1787,-2.14231 20.8461,-10.93163 37.0386,-19.5318 16.1925,-8.60017 46.439,-24.48383 67.2144,-35.29699 36.3541,-18.92152 38.014,-20.03623 44.1733,-29.66471 17.7322,-27.71991 25.3745,-74.6901 27.841,-171.11187 l 0.7406,-28.95263 -12.2599,-16.63334 c -11.7394,-15.92705 -21.3422,-32.35388 -21.3422,-36.50858 0,-1.0764 2.8662,-5.1648 6.3693,-9.08536 20.1869,-22.59248 49.0442,-78.31449 60.9612,-117.713 33.244,-109.90737 46.1956,-188.997282 40.9849,-250.275955 -1.2423,-14.6099608 -5.1786,-44.953121 -8.7474,-67.429245 -3.5687,-22.476124 -9.0547,-61.80673 -12.1911,-87.40135 -10.6895,-87.23181 -13.5487,-100.81478 -23.3927,-111.12913 -8.3534,-8.75259 -12.9321,-9.69169 -19.6583,-4.03199 -8.0888,6.80629 -20.0458,9.43732 -42.4265,9.33557 -34.2961,-0.15594 -60.3103,-6.35438 -82.2801,-19.60497 -12.3246,-7.4333 -13.1542,-7.66171 -17.4961,-4.81682 -6.7839,4.44501 -11.355,3.69216 -21.9867,-3.62118 l -9.6059,-6.60768 -6.9682,3.53872 c -3.8325,1.9463 -12.0966,4.58994 -18.3647,5.87476 -6.2681,1.28482 -13.8094,3.5748 -16.7585,5.08884 -9.5018,4.87813 -15.308,1.77204 -38.2721,-20.4742 l -21.3573,-20.68959 -3.1113,15.5126 c -3.9278,19.58318 -6.3818,23.2984 -17.1862,26.01897 -5.069,1.27639 -9.4452,3.72614 -10.6381,5.95509 -4.1508,7.7559 -12.2724,4.27488 -37.9818,-16.27949 -17.824,-14.25008 -30.8314,-21.72098 -37.8178,-21.72098 l -6.05737,0 1.51886,11.87135 c 0.83538,6.52924 1.44413,16.49703 1.35275,22.15064 -0.14303,8.85091 -0.92192,10.92939 -5.60516,14.95774 -5.08572,4.37457 -6.30872,4.5873 -18.82801,3.27515 -18.91734,-1.98275 -20.76555,-1.69977 -29.91176,4.57964 -4.93062,3.38516 -15.48894,7.51462 -26.63079,10.41556 -28.13052,7.3242 -41.37043,17.41705 -41.37043,31.53686 0,9.12797 -2.32393,15.51796 -18.64485,51.26688 -14.47153,31.69807 -19.41998,46.930543 -28.6928,88.322812 -3.27645,14.625498 -11.16833,43.259185 -17.53751,63.6304145 C 803.25054,28.591486 796.4935,50.61667 794.60408,57.165113 l -3.4353,11.906276 8.43422,19.022702 c 4.63881,10.462474 10.11153,25.075549 12.16161,32.473509 2.09118,7.54624 7.5909,19.64953 12.52858,27.5717 13.16684,21.12534 13.35054,34.54136 0.5341,39.00921 -3.15436,1.09961 -6.47214,4.04824 -7.4505,6.62149 -6.12977,16.12252 3.76854,69.03327 17.3879,92.94582 3.0474,5.35056 5.54073,12.28286 5.54073,15.40512 0,6.99078 6.47569,16.93078 20.74896,31.84905 5.99708,6.26807 15.05161,16.37478 20.12119,22.45937 l 9.21743,11.06288 15.31878,-1.23779 15.31879,-1.23779 11.57809,8.66277 c 6.36794,4.76454 26.45426,16.49098 44.63626,26.05873 18.18198,9.56777 40.32308,22.54769 49.20238,28.84429 27.5819,19.5591 54.116,29.27679 94.3368,34.54929 24.8767,3.26105 79.7284,3.70953 113.3178,0.92653 49.4687,-4.09865 76.0013,-16.15054 81.2247,-36.8947 2.3343,-9.27034 9.4774,-16.82023 14.1995,-15.00819 6.0634,2.32674 0.7062,16.15859 -14.6849,37.91522 -27.7065,39.16531 -58.6808,59.32529 -106.3818,69.23978 -18.148,3.77199 -23.296,3.99231 -68.9961,2.95272 -46.7752,-1.06405 -88.0399,-4.31416 -110.9975,-8.74244 -8.3187,-1.60457 -12.5693,-1.38678 -21.8433,1.11917 -22.41457,6.05671 -19.12911,7.33142 -46.05258,-17.86772 -38.83043,-36.34351 -62.2673,-61.27077 -97.63647,-103.84529 -18.19115,-21.89701 -33.66939,-40.67648 -34.39611,-41.73213 -2.87881,-4.18193 -2.99247,0.78111 -0.49725,21.71332 3.99702,33.5306 3.44927,57.83465 -1.98836,88.22478 -8.15976,45.60365 -5.81464,63.05252 10.5752,78.68512 5.1572,4.91892 9.37673,10.36891 9.37673,12.11109 0,8.26056 31.4166,60.08336 56.70997,93.54511 32.25198,42.66763 66.56005,69.81985 104.17767,82.44868 34.5256,11.5908 88.5361,23.57046 98.5087,21.84947 2.1587,-0.37253 21.3903,-3.31664 42.7368,-6.54248 z M 1076.7826,282.631 c -4.1787,-1.50542 -7.8113,-2.75001 -8.0725,-2.76574 -1.7255,-0.1039 0.015,-7.56856 2.186,-9.36946 3.9096,-3.24465 39.1894,-7.18549 95.159,-10.62947 58.8959,-3.62402 87.7494,-7.11336 96.2799,-11.64341 4.4728,-2.37526 10.8,-3.36634 21.9133,-3.43247 14.399,-0.0857 16.0166,0.2987 20.6199,4.89988 6.0192,6.01653 5.0262,11.65324 -2.5932,14.71999 -16.256,6.54292 -158.817,21.29591 -203.3253,21.04121 -8.0132,-0.0458 -17.9884,-1.31509 -22.1671,-2.82053 z m 123.462,-92.93032 c -4.1787,-1.52497 -8.4524,-4.25481 -9.4971,-6.06634 -4.6343,-8.03622 -10.3015,-11.75937 -21.0895,-13.85523 -21.3777,-4.15316 -32.0941,-8.30333 -32.0941,-12.42916 0,-7.4116 8.0212,-8.89711 45.1947,-8.36991 82.6532,1.17219 83.2045,1.15042 92.1839,-3.6412 15.3213,-8.17582 22.9383,-1.64185 11.3981,9.77755 -3.9085,3.86764 -13.0541,8.93487 -23.9654,13.27832 -9.7047,3.86312 -23.3805,10.51503 -30.3907,14.78201 -14.8212,9.02146 -21.2662,10.34617 -31.7399,6.52396 z m -54.1277,-6.2623 c -7.0023,-3.50098 -9.7271,-9.27323 -5.1978,-11.01127 1.4774,-0.56692 7.5237,0.77918 13.4362,2.99135 7.9597,2.97807 10.7501,4.97278 10.7501,7.68448 0,4.80767 -9.7009,4.97904 -18.9885,0.33544 z M 936.22589,-6.5791523 c -13.1167,-1.6851043 -14.11106,-10.2228247 -2.37427,-20.3859687 8.38007,-7.256508 27.0173,-17.011202 36.08889,-18.888888 9.30543,-1.926084 5.57834,-5.679613 -11.39649,-11.477332 -19.01717,-6.495279 -20.51065,-9.154346 -8.77688,-15.62706 13.53243,-7.464911 41.0266,-10.454382 98.52426,-10.712626 45.9349,-0.206334 52.2909,0.143405 60.9351,3.353398 20.4911,7.609153 33.2792,21.059787 30.5104,32.091307 -1.6631,6.626281 -12.7283,13.986231 -25.2356,16.785228 -8.5606,1.91577 -10.163,2.982709 -11.1365,7.415109 -0.6254,2.847546 -3.2953,7.207863 -5.933,9.689582 -4.2415,3.990634 -7.249,4.6585635 -26.0184,5.7783258 -11.6724,0.6963447 -28.6828,1.8840871 -37.8008,2.6393896 l -16.5782,1.3733153 -7.1645,-7.4122217 c -3.9405,-4.076715 -8.0462,-9.005888 -9.1239,-10.953719 -1.83979,-3.325288 -2.61942,-3.119277 -12.77132,3.374824 -14.00122,8.956465 -37.36161,14.8056578 -51.74879,12.9573367 z M 1315.7008,-20.209585 c -3.5341,-2.154868 -8.1884,-7.831973 -11.049,-13.477036 -4.2349,-8.357104 -5.5363,-9.572369 -9.0889,-8.486853 -19.5034,5.959415 -38.4957,5.930886 -45.1241,-0.06781 -8.1487,-7.3745 -1.7694,-24.978376 10.9825,-30.306464 3.9379,-1.64535 11.64,-7.691569 17.1157,-13.436009 16.4031,-17.208203 35.1453,-23.515953 69.862,-23.512273 33.7246,0.004 71.565,8.5653 72.7463,16.459535 0.4419,2.953306 -1.3178,4.51926 -7.9051,7.034998 -4.6604,1.779828 -9.0597,4.689922 -9.7762,6.466882 -0.7165,1.776979 -1.7574,14.342429 -2.3132,27.923249 -0.5557,13.580819 -1.806,26.228589 -2.7784,28.106143 -1.5679,3.027307 -3.5289,3.27349 -17.3233,2.174716 -11.4985,-0.915898 -18.5991,-0.443931 -27.226,1.809649 -16.1104,4.208459 -30.5174,3.948163 -38.1223,-0.688766 z M 776.8665,182.49162 c -2.08284,-25.02226 -6.6874,-53.46581 -13.45247,-83.099426 -3.4581,-15.147838 -6.87019,-33.524681 -7.58241,-40.83743 -2.77761,-28.519342 -12.50784,-54.4533518 -25.65522,-68.3789535 -3.94518,-4.1787135 -8.34536,-10.1618725 -9.77817,-13.2959075 -3.61722,-7.912072 -17.11179,-14.5352 -28.1858,-13.833575 -7.14718,0.45284 -8.87021,1.361729 -10.92164,5.76106 -1.33962,2.872865 -3.53688,7.573918 -4.88277,10.446784 -1.9775,4.221014 -3.70889,5.223392 -9.02222,5.223392 -5.69447,0 -6.83321,-0.798381 -8.50192,-5.960783 l -1.92678,-5.960783 -7.57029,4.061368 c -4.16366,2.23375 -7.89124,4.239856 -8.28353,4.458023 -1.50352,0.836179 6.00485,38.646986 12.17961,61.334344 17.29227,63.535477 33.48845,97.031447 59.7617,123.595637 20.52901,20.75634 40.63098,31.92948 57.73041,32.08789 l 7.39589,0.0686 -1.30439,-15.67018 z M 649.8027,-50.075118 c 3.35851,-3.517319 6.17825,-4.376367 14.24562,-4.340012 5.53204,0.02488 13.45321,0.832418 17.6026,1.794453 4.14937,0.962016 7.92085,1.372613 8.38106,0.912422 1.97043,-1.970453 -3.9956,-10.659822 -9.71358,-14.147529 -19.28126,-11.760705 -34.63998,-3.755809 -38.26332,19.942703 -0.99837,6.529943 -0.82983,7.079482 1.19933,3.910478 1.29852,-2.027949 4.24525,-5.660581 6.54829,-8.072515 z"
         id="path4736"
         inkscape:connector-curvature="0" />
      <path
         style="fill:#b0b0b0"
         d="m -23.928555,386.40713 c 0,-641.70904 0.317388,-721.69641 2.867557,-722.67501 4.506116,-1.72915 137.476338,-5.45988 168.079818,-4.71579 21.60371,0.52527 28.56529,1.3464 32.29006,3.80863 2.6117,1.72646 9.02223,3.64677 14.24562,4.26734 36.41301,4.32619 288.11745,9.7686 322.29317,6.96869 15.87298,-1.30041 25.06062,-3.06484 32.29006,-6.20109 8.21015,-3.56173 13.48743,-4.38353 28.14896,-4.38353 21.50333,0 28.4584,3.09806 36.03384,16.05089 2.68654,4.59357 5.72112,8.61925 6.74352,8.94593 1.02239,0.3267 4.31216,-5.59131 7.3106,-13.15112 6.80756,-17.16361 34.88018,-70.28084 46.09301,-87.21431 4.62086,-6.97834 14.35892,-19.24666 21.64012,-27.26296 10.54344,-11.60786 13.23856,-15.80245 13.23856,-20.6041 0,-14.30142 16.3922,-26.06987 41.20755,-29.58415 14.50926,-2.05477 22.15133,-6.72773 23.02766,-14.08094 0.35654,-2.99152 2.97093,-6.81304 6.36866,-9.30923 3.17013,-2.32896 10.05631,-10.43131 15.30262,-18.00523 6.89245,-9.9504 10.68492,-13.77076 13.67017,-13.77076 5.09194,0 8.69002,-3.38174 8.69002,-8.16749 0,-4.68476 11.85222,-16.52491 16.54176,-16.52491 1.99416,0 5.28489,1.22366 7.31275,2.71924 3.33455,2.4593 4.16895,2.19477 8.72861,-2.76731 2.77286,-3.0176 7.47391,-6.00164 10.44678,-6.6312 8.98629,-1.90302 10.67798,-3.58236 14.2781,-14.17369 4.33604,-12.75643 7.07435,-15.76536 19.02682,-20.90718 41.21577,-17.73054 121.53436,-15.69257 182.66286,4.63483 13.4917,4.48644 28.6607,7.62955 50.607,10.4861 56.5069,7.35494 75.2402,11.83062 104.2044,24.89599 84.2128,37.98738 131.84,76.68049 184.5083,149.89762 21.425,29.78414 102.0961,161.1935 103.4136,168.45605 2.3179,12.77609 9.8298,26.79739 16.595,30.97506 11.1066,6.85867 29.9557,11.18022 74.6799,17.12193 24.0276,3.19212 53.4131,7.48514 65.301,9.54004 16.5916,2.86795 30.4955,3.74104 59.8316,3.75709 21.0194,0.0114 41.4224,0.55069 45.3399,1.19822 l 7.1228,1.17732 0,648.40182 0,648.40188 -407.5189,0 c -364.0463,0 -408.12509,-0.3135 -413.20174,-2.9388 -5.12844,-2.652 -6.80198,-2.652 -17.15383,0 -10.20358,2.6141 -64.54779,2.9388 -491.86962,2.9388 l -480.398665,0 0,-721.57467 z m 1176.687755,357.8619 34.1895,-5.25988 63.6304,-33.25578 c 85.2011,-44.52948 86.6186,-45.33003 90.8234,-51.29132 19.1891,-27.20489 27.6251,-72.02403 29.8657,-158.67283 l 1.2674,-49.0159 -8.4078,-10.81568 c -12.4604,-16.02883 -20.4451,-28.20072 -22.6516,-34.53046 -1.7562,-5.03784 -1.2669,-6.47464 4.6821,-13.7485 8.8587,-10.83161 29.8258,-45.5039 41.3665,-68.40572 10.9768,-21.7828 15.4606,-34.66705 29.1128,-83.65591 21.6328,-77.6262 29.2911,-120.83748 30.8965,-174.331022 1.2853,-42.829271 -0.082,-58.8785334 -10.6672,-125.243555 -4.0825,-25.594622 -9.701,-66.194623 -12.4855,-90.222233 -8.8241,-76.14279 -13.7676,-93.55211 -28.5574,-100.57039 -6.2639,-2.97238 -7.1863,-2.99204 -10.9865,-0.23405 -2.2816,1.65593 -5.9417,4.30018 -8.1335,5.87615 -2.1918,1.57594 -10.9424,3.8794 -19.4458,5.11877 -30.1269,4.39105 -81.8075,-5.65902 -99.8946,-19.42604 -7.3682,-5.60829 -16.8435,-7.48034 -19.1307,-3.77965 -2.247,3.63577 -11.4449,1.75709 -18.8576,-3.85167 -8.4162,-6.36798 -12.1641,-6.88996 -20.0798,-2.79659 -3.0299,1.56685 -10.0391,3.75055 -15.5759,4.85265 -5.5367,1.10211 -13.2191,3.34504 -17.072,4.98427 -4.1485,1.76505 -9.0166,2.4756 -11.9378,1.74245 -2.7129,-0.6809 -14.7196,-10.71905 -26.6814,-22.30698 -14.0992,-13.65845 -22.0734,-20.1536 -22.6714,-18.46644 -0.5075,1.4314 -2.2129,8.9403 -3.79,16.68648 -3.2587,16.00639 -7.6241,21.98508 -17.3902,23.81722 -3.5914,0.67374 -7.5709,2.89213 -8.8434,4.92976 -4.6245,7.40501 -9.5789,5.09481 -41.5273,-19.36395 -17.7446,-13.58467 -27.4762,-18.71843 -35.48291,-18.71843 l -6.33789,0 1.56122,10.92164 c 0.85869,6.0069 1.56124,16.34012 1.56124,22.96271 0,10.49634 -0.59867,12.52562 -4.66663,15.81797 -4.19921,3.39859 -6.40067,3.6469 -21.97829,2.47901 -17.19839,-1.28942 -17.36669,-1.25935 -25.72401,4.59685 -5.21477,3.65411 -14.5492,7.4291 -24.55739,9.93136 -19.16986,4.79289 -31.18902,10.55197 -38.84196,18.61149 -4.5037,4.743 -5.85101,8.22278 -6.87113,17.74672 -0.95769,8.94113 -4.41603,18.60211 -14.09987,39.3884 -18.20769,39.0826 -21.0993,47.48303 -31.38338,91.171938 -5.04114,21.415908 -15.28703,58.5951785 -22.76861,82.62058 -7.48161,24.02542 -13.7003,44.975591 -13.81935,46.555924 -0.11909,1.580351 3.72855,12.266367 8.5502,23.74668 4.82166,11.480328 10.2051,26.001748 11.96322,32.269818 1.7581,6.26807 6.9571,17.50035 11.55332,24.96065 13.11689,21.29043 13.6141,32.61815 1.65115,37.61659 -9.19804,3.84318 -11.03562,9.73667 -9.61631,30.84111 1.54979,23.04449 8.55309,49.94433 18.07936,69.44335 4.25004,8.69925 7.72734,18.07087 7.72734,20.82582 0,5.6224 4.08296,11.0576 31.03253,41.31019 20.08132,22.54255 20.56142,22.79703 36.17448,19.1749 9.0581,-2.10141 13.37942,-0.57723 26.54471,9.36266 5.55497,4.19404 24.74847,15.26361 42.65218,24.59902 17.90374,9.33542 40.05188,22.30649 49.21808,28.82462 36.4445,25.91594 70.8434,35.30607 136.3289,37.21483 94.7551,2.7619 147.018,-10.40886 154.714,-38.98934 2.6309,-9.77063 8.9204,-16.94839 12.0812,-13.78755 8.3666,8.36654 -37.1514,66.55695 -64.2268,82.10787 -31.4397,18.05761 -50.8561,22.82107 -97.614,23.94783 -39.1385,0.94315 -93.5522,-1.84223 -123.3379,-6.31353 -23.2401,-3.48869 -30.3097,-3.41112 -44.96241,0.49328 l -12.01619,3.20186 -6.73077,-5.13381 C 962.25141,499.17309 893.8891,428.29082 867.19344,395.70099 831.03372,351.55753 825.55604,345.23711 824.43213,346.361 c -0.49802,0.49804 0.30131,11.16224 1.77632,23.69821 4.30529,36.59031 3.76948,60.49315 -2.08624,93.07103 -8.07297,44.91338 -5.45378,61.63266 12.34223,78.78512 6.07032,5.85079 9.54893,10.81079 9.56595,13.63965 0.0762,12.68705 51.05605,89.3349 79.99197,120.26748 32.09194,34.30637 58.45833,48.73376 117.87144,64.49784 45.5635,12.0894 53.9689,12.39426 108.8654,3.9487 z M 1077.9121,281.9784 c -5.696,-1.59384 -9.4238,-6.95337 -6.7183,-9.65889 3.2828,-3.28278 20.3402,-5.60447 63.1353,-8.59338 110.7305,-7.73369 115.537,-8.26916 130.3527,-14.52217 21.7596,-9.18374 55.1539,1.60927 38.5798,12.46898 -14.6975,9.63023 -202.8966,26.58817 -225.3495,20.30546 z m 123.2822,-93.47935 c -2.6117,-1.00337 -7.7745,-5.30796 -11.473,-9.56574 -6.2846,-7.23488 -8.0119,-8.03153 -26.3981,-12.17497 -10.8204,-2.43845 -21.0428,-5.82456 -22.7164,-7.5247 -2.7922,-2.83653 -2.7596,-3.30136 0.3963,-5.643 5.9505,-4.41519 28.5839,-5.3003 72.164,-2.82211 44.4228,2.52613 46.7435,2.31883 67.3013,-6.01182 8.5153,-3.45065 11.9421,-0.17874 7.2742,6.94534 -3.0044,4.5854 -10.4068,8.60648 -35.1598,19.09942 -4.6437,1.9685 -14.8327,7.22038 -22.6423,11.67087 -14.3215,8.16148 -20.0587,9.36427 -28.7462,6.02671 z m -55.6754,-6.68059 c -11.5792,-6.27711 0.3808,-9.60331 12.3237,-3.42736 2.9499,1.52542 5.3634,3.60629 5.3634,4.62415 0,2.84249 -11.6958,2.0511 -17.6871,-1.19679 z M 931.9522,-8.8331505 c -7.05435,-3.0014185 -5.51586,-10.1776945 3.79884,-17.7197975 10.04475,-8.133221 25.75516,-16.51101 30.96219,-16.51101 5.26277,0 11.08049,-4.45675 10.00998,-7.668282 -0.47455,-1.42365 -7.64374,-4.768064 -15.93154,-7.432032 -18.45312,-5.9314 -20.07138,-9.311371 -7.0832,-14.794224 12.79854,-5.402811 33.01051,-7.844072 81.70293,-9.868317 42.9384,-1.785052 59.1885,-0.817699 73.99,4.404573 18.207,6.423804 31.0315,19.855045 28.5185,29.867756 -1.7173,6.841941 -19.0573,16.43226 -30.2718,16.74251 -4.3095,0.119284 -5.2234,1.00084 -5.2234,5.039149 0,6.064606 -9.448,15.92373 -15.524,16.199582 -2.4309,0.110356 -10.8304,0.38731 -18.6654,0.6154297 -7.8351,0.2281198 -22.3787,1.1061815 -32.3192,1.9512314 -17.7486,1.5088386 -18.1795,1.4472595 -23.9712,-3.4260891 -3.2437,-2.729403 -6.9669,-7.544079 -8.2738,-10.699255 -2.9678,-7.164823 -5.05211,-7.172496 -14.39807,-0.05299 -13.01922,9.917721 -46.86348,17.801055 -57.32083,13.3517505 z m 385.1065,-12.6784265 c -6.4244,-4.510048 -9.0572,-7.921132 -12.6035,-16.328989 -3.4527,-8.18572 -2.6058,-7.941779 -14.7651,-4.253133 -11.3429,3.441 -28.859,3.630638 -35.3121,0.382295 -10.0646,-5.066196 -5.5116,-23.02986 7.368,-29.070495 3.7827,-1.774092 12.5657,-8.565166 19.5179,-15.091273 14.7701,-13.864915 25.6744,-18.636018 49.9871,-21.871428 18.9761,-2.52525 43.2676,-0.38381 68.3815,6.02821 22.5365,5.753999 25.1662,9.085232 11.7214,14.848324 -4.5502,1.950471 -8.7679,4.835835 -9.3728,6.411951 -0.6048,1.576097 -1.6327,13.412 -2.2842,26.302002 -1.7715,35.048069 1.2376,31.405637 -27.0686,32.766359 -13.3261,0.640616 -30.2124,1.624874 -37.5252,2.187253 -10.7592,0.827442 -14.2019,0.386512 -18.0444,-2.311076 z M 778.71091,184.39103 C 776.64989,159.61867 770.66556,122.75073 764.55584,97.185339 761.46505,84.252334 758.01205,65.568621 756.88251,55.665981 753.47203,25.7666 745.3545,4.6313871 731.32187,-10.884975 c -4.30678,-4.762157 -9.25185,-11.32591 -10.98903,-14.586142 -3.96222,-7.435984 -12.48376,-11.921149 -25.12906,-13.226256 -11.22213,-1.158226 -13.46999,0.49702 -18.30216,13.477035 -2.63445,7.076576 -3.51361,7.798487 -9.49707,7.798487 -6.39184,0 -6.58723,-0.218262 -6.37723,-7.122808 0.11909,-3.917544 -0.17627,-7.122807 -0.6565,-7.122807 -0.48023,0 -3.4882,1.862092 -6.68438,4.137971 -3.19617,2.27588 -7.60181,4.283847 -9.79029,4.462164 -3.48095,0.28362 -3.90974,1.370561 -3.42537,8.683082 2.07984,31.399501 22.72907,103.482789 38.85009,135.619719 12.96003,25.83556 31.41394,48.22806 51.63439,62.65459 15.56932,11.10814 27.08521,15.51403 41.69133,15.95082 l 7.36806,0.22033 -1.30374,-15.67018 z M 644.66564,-40.170047 c 0,-1.28655 2.20381,-4.71716 4.89737,-7.62355 4.76851,-5.145289 5.30577,-5.257848 20.41872,-4.277294 8.53673,0.55387 16.75267,1.311223 18.25765,1.683015 1.50499,0.371773 3.06712,-0.838953 3.47143,-2.690503 1.10795,-5.073794 -10.82862,-15.885133 -20.37719,-18.456296 -16.99789,-4.577059 -28.2403,5.892252 -31.58775,29.415638 -1.23572,8.683633 -1.0837,9.270609 1.78448,6.890224 1.72442,-1.431114 3.13529,-3.654684 3.13529,-4.941234 z"
         id="path4734"
         inkscape:connector-curvature="0" />
      <path
         style="fill:#8f8f8f"
         d="m -23.928555,386.32029 0,-721.66144 8.072515,-0.99877 c 11.0006406,-1.36105 106.131387,-3.44108 150.92985,-3.30006 32.80058,0.10332 37.25522,0.5052 44.05733,3.97538 6.24486,3.18589 13.64298,4.19214 42.33565,5.7583 57.33702,3.12967 202.0183,6.13739 259.84913,5.4019 50.92293,-0.64764 54.67368,-0.93597 63.24453,-4.86184 13.3126,-6.09782 28.71091,-8.42026 41.7164,-6.29185 14.517,2.37577 20.9658,6.49395 25.82225,16.48999 4.38334,9.02222 9.49197,10.85428 11.18981,4.01289 2.08657,-8.40778 39.15406,-79.73913 49.38817,-95.04086 5.73853,-8.58003 15.84209,-21.33831 22.45238,-28.35169 9.04638,-9.59805 12.29588,-14.5303 13.13952,-19.94387 0.61646,-3.95574 2.15683,-9.23742 3.42307,-11.73709 3.56665,-7.04091 20.25797,-15.40397 34.87536,-17.47405 16.06246,-2.27472 23.77696,-6.63101 26.51204,-14.97106 1.15646,-3.52645 4.14804,-8.06663 6.64795,-10.0893 2.4999,-2.02267 8.86736,-9.7794 14.14994,-17.23716 7.23985,-10.221 10.94259,-13.79342 15.03862,-14.50931 3.9739,-0.69454 5.92249,-2.48078 7.25218,-6.64797 4.13788,-12.96789 15.30051,-19.32346 24.18921,-13.77238 3.31465,2.07004 4.34096,1.70419 8.04674,-2.86839 2.47925,-3.05917 7.80585,-6.24601 12.79489,-7.65504 8.05957,-2.27623 8.74451,-3.00684 12.00161,-12.80178 4.42038,-13.29328 8.9044,-17.95193 22.02587,-22.88366 44.37811,-16.67959 121.20514,-14.12512 179.30744,5.96192 11.8174,4.08551 27.1892,7.17544 52.2339,10.49972 19.5187,2.59079 36.7706,5.08244 38.3376,5.537 1.5671,0.45455 10.2484,2.10159 19.2918,3.66007 17.123,2.95085 36.8142,10.90091 76.4845,30.8796 37.9879,19.1314 64.6167,37.85278 93.9682,66.06422 36.5833,35.16243 54.8628,60.08627 115.6676,157.7109 35.9162,57.66502 44.3356,72.49423 46.9108,82.62457 4.0154,15.79636 9.2463,23.41843 20.1454,29.35416 11.934,6.49936 25.7905,9.41603 76.7691,16.1592 24.0418,3.18011 50.1148,7.00702 57.9402,8.50425 8.4165,1.61034 34.5912,3.27788 64.0828,4.08258 l 49.8549,1.36033 -0.011,648.36102 -0.011,648.36108 -408.1094,0 c -402.02927,0 -408.17967,-0.055 -412.82767,-3.7115 -4.67813,-3.6798 -4.82188,-3.6799 -16.87604,-0.015 -11.90793,3.621 -22.02211,3.6972 -492.23496,3.7115 l -480.078385,0.015 0,-721.66151 z M 1152.2836,745.36812 c 36.738,-5.75576 37.856,-6.06724 54.1334,-15.08139 9.1413,-5.06234 42.6026,-22.76427 74.3585,-39.33763 57.0291,-29.76352 57.8158,-30.25516 64.0838,-40.05362 17.4357,-27.25648 24.2509,-63.47529 27.2894,-145.0284 0.9925,-26.6393 1.8243,-50.65815 1.8485,-53.37522 0.027,-3.06441 -3.723,-9.91575 -9.877,-18.04445 -12.685,-16.75518 -22.3691,-32.8358 -22.3691,-37.14404 0,-1.85327 2.4544,-6.17725 5.4544,-9.6088 9.1323,-10.44631 30.5979,-46.61638 43.1558,-72.71873 8.3593,-17.37527 14.7035,-34.54239 21.4094,-57.93217 25.3571,-88.44472 35.4207,-140.89126 37.5399,-195.639783 1.3682,-35.34869 -0.4491,-55.8947041 -10.6412,-120.308646 -4.2538,-26.883775 -10.3179,-70.857501 -13.4757,-97.719411 -8.5121,-72.40851 -11.8188,-85.31209 -24.6232,-96.08626 -7.5817,-6.3796 -12.2261,-6.24469 -22.4006,0.65068 -10.4302,7.0687 -20.0232,8.46059 -48.6043,7.05227 -31.5645,-1.55532 -53.8034,-7.78468 -73.9541,-20.71535 -9.6266,-6.17737 -9.2348,-6.16544 -22.2755,-0.67813 -1.8661,0.78518 -6.6884,-1.27754 -12.7753,-5.4646 -11.2708,-7.75299 -13.0953,-8.01695 -21.6321,-3.12957 -3.4549,1.97798 -11.7794,4.5269 -18.4989,5.66425 -6.7195,1.13737 -13.0873,2.93798 -14.1506,4.00134 -1.0634,1.06337 -4.7671,1.9334 -8.2304,1.9334 -5.4655,0 -9.3068,-2.92267 -29.0887,-22.13222 -12.5355,-12.17272 -23.2099,-21.71398 -23.7211,-21.20281 -0.5112,0.51117 -1.808,5.98329 -2.8818,12.16029 -4.0007,23.01252 -9.4353,31.17474 -20.7569,31.17474 -1.953,0 -5.2716,2.35053 -7.3746,5.22339 l -3.8235,5.22339 -6.3068,-3.38751 c -3.4688,-1.86313 -14.4268,-9.78854 -24.3513,-17.612 -19.8243,-15.62758 -34.0563,-23.63675 -42.00177,-23.63675 -6.28828,0 -7.0863,2.00656 -5.24134,13.17919 2.72715,16.515 1.95095,31.62314 -1.86693,36.338 -3.08758,3.813 -4.9109,4.27145 -14.72047,3.70111 -23.72396,-1.37934 -26.21699,-1.07984 -33.06717,3.97244 -8.1635,6.02089 -14.15211,8.32572 -31.80782,12.24182 -14.49582,3.21524 -28.74413,11.2986 -35.0188,19.86692 -2.01784,2.75546 -3.74099,8.85222 -4.07365,14.41322 -0.41303,6.90483 -3.67752,16.32272 -11.5124,33.21281 -19.21008,41.41222 -25.27426,58.65403 -34.12909,97.036386 -4.742,20.554827 -15.07068,58.1150442 -22.95259,83.467149 -7.88193,25.352104 -14.33077,47.104266 -14.33077,48.338107 0,1.233861 4.15359,11.966279 9.23019,23.849819 5.07661,11.883559 10.27609,26.034719 11.55443,31.447059 1.27834,5.41233 6.20324,16.09654 10.94422,23.7427 14.00718,22.59045 14.83271,32.04492 3.22164,36.89633 -9.59547,4.00923 -10.834,8.04041 -9.80535,31.9142 1.09332,25.37488 6.43041,47.32375 16.77571,68.99034 4.10517,8.59767 7.48537,17.99977 7.51152,20.89357 0.0534,5.90357 5.58499,13.55919 26.54425,36.73654 27.31439,30.20503 25.83069,28.99461 33.76504,27.54551 20.30171,-3.70781 19.65748,-3.81405 31.76479,5.23798 6.26807,4.68631 27.20913,16.98542 46.53568,27.33135 19.32655,10.34594 41.54968,23.39791 49.38478,29.00436 38.0661,27.23851 77.3649,36.65068 152.903,36.62072 62.1971,-0.0247 90.3769,-3.68226 113.8219,-14.7735 13.8453,-6.54988 22.8778,-15.81831 25.4776,-26.143 2.3839,-9.46716 6.8786,-14.56669 10.0467,-11.39858 2.3068,2.30684 -0.3719,8.07563 -12.5038,26.92784 -29.5669,45.9449 -68.7351,69.54341 -126.6013,76.27617 -28.9867,3.3726 -102.5275,-0.01 -151.7476,-6.97818 -22.611,-3.20145 -24.744,-3.01854 -46.8912,4.021 -3.46497,1.10134 -8.19298,-2.45083 -28.49123,-21.40569 -35.46575,-33.11849 -65.1934,-64.39472 -88.88846,-93.51883 -26.89813,-33.06109 -46.47516,-55.86591 -48.64541,-56.66589 -2.37909,-0.87698 -2.17641,4.58703 1.33544,36.00251 3.52902,31.56906 2.80969,50.40089 -3.10524,81.29503 -5.57218,29.10389 -4.83798,56.18218 1.84338,67.98659 2.49209,4.40294 7.80962,10.64007 11.81672,13.86026 4.01867,3.22949 7.28565,7.53949 7.28565,9.61165 0,6.49335 12.51031,28.96582 33.97641,61.0324 45.51442,67.99046 76.6405,96.53417 125.19844,114.81132 16.1239,6.06901 60.2787,17.62386 79.2018,20.72627 18.4018,3.01695 22.2562,2.75791 69.8027,-4.69126 z m -78.2362,-466.92744 -4.6347,-3.78223 4.1103,-2.19979 c 6.1598,-3.29659 27.6321,-5.61049 90.6327,-9.76678 67.193,-4.43285 85.6329,-6.63405 99.7193,-11.90359 14.4726,-5.41398 33.0282,-5.24721 38.6225,0.34713 5.567,5.56696 2.509,10.00874 -8.8649,12.87627 -24.297,6.12569 -122.1398,15.85623 -172.2137,17.1268 -40.7249,1.03334 -42.955,0.90633 -47.3715,-2.69781 z m 128.5939,-90.90891 c -6.5598,-2.01737 -9.787,-4.29011 -11.9035,-8.38292 -3.7395,-7.23145 -9.562,-10.00416 -29.6106,-14.10067 -18.641,-3.80891 -21.7143,-5.227 -20.1519,-9.29857 1.8152,-4.73028 16.6618,-5.75057 58.2926,-4.006 52.805,2.21286 62.6229,1.72294 75.6618,-3.77554 10.9297,-4.60908 13.6377,-4.68052 13.6377,-0.35979 0,4.69234 -9.2116,10.93858 -26.8091,18.17885 -9.8049,4.03409 -24.665,11.25288 -33.0225,16.04174 -8.3574,4.78885 -15.6226,8.65383 -16.145,8.58884 -0.5223,-0.065 -4.9996,-1.36367 -9.9495,-2.88594 z m -54.1557,-5.49767 c -6.4193,-2.79007 -8.3164,-6.66529 -3.263,-6.66529 4.6739,0 16.084,5.32106 16.084,7.50073 0,2.73564 -5.4171,2.38265 -12.821,-0.83544 z m -135.983,-194.698675 c -3.5639,-3.12923 -7.5437,-8.257651 -8.8438,-11.396492 -2.8537,-6.889427 -4.20155,-7.021436 -12.00174,-1.175397 -19.64315,14.721989 -56.89344,21.7998185 -62.8354,11.939175 -1.77035,-2.937902 -0.77575,-4.661603 6.45452,-11.18598 9.18037,-8.284073 28.78129,-18.576738 35.38147,-18.579189 4.89294,-0.0018 9.12381,-4.625342 7.67866,-8.391332 -0.57828,-1.506958 -7.71953,-4.75304 -15.86947,-7.213467 -17.52719,-5.29141 -19.80345,-8.97185 -8.37659,-13.543971 10.9802,-4.393404 27.95579,-6.729913 64.17485,-8.833022 63.5866,-3.692216 81.3263,-2.123527 101.7612,8.998518 12.374,6.734795 16.9257,12.712616 16.2054,21.282854 -0.51,6.068139 -1.6079,7.276319 -10.8797,11.972604 -5.898,2.987401 -13.4191,5.223393 -17.5696,5.223393 -6.9551,0 -7.2571,0.262879 -7.2571,6.316866 0,4.332605 -1.5385,7.763291 -4.898,10.921639 -4.4331,4.167773 -6.7314,4.649901 -24.2175,5.080385 -10.6258,0.261587 -23.9639,1.3300084 -29.6404,2.374269 -17.0564,3.1377772 -22.1229,2.4815292 -29.2668,-3.790853 z m 306.4905,-9.033905 c -4.3687,-2.193976 -8.6166,-6.866386 -12.5168,-13.767817 -3.5376,-6.259656 -6.9774,-10.192472 -8.5824,-9.812285 -1.4732,0.34898 -7.737,1.931022 -13.9196,3.515647 -16.7368,4.289697 -35.2946,-0.0114 -35.2946,-8.180554 0,-7.467513 6.4631,-16.237057 15.2473,-20.688318 4.9605,-2.513667 11.8928,-7.891748 15.4052,-11.951254 3.5123,-4.059526 9.8251,-9.634937 14.0283,-12.389811 10.9954,-7.206608 34.3456,-12.671208 54.1438,-12.671208 26.5569,0 67.853,8.688267 69.7667,14.67815 0.4174,1.306569 -2.6505,3.690583 -6.977,5.42171 -9.5182,3.808423 -10.7397,7.744391 -12.2648,39.517754 -0.5961,12.418473 -1.5031,22.998349 -2.0156,23.51085 -0.5125,0.512519 -8.8712,0.812664 -18.5749,0.666998 -10.5996,-0.159171 -21.8138,0.872326 -28.09,2.583566 -13.7353,3.745058 -22.2781,3.623078 -30.3556,-0.433428 z m -539.08336,211.3129 c -1.06665,-21.55017 -6.40247,-57.03315 -12.98535,-86.35203 -3.62684,-16.153279 -7.79254,-38.376438 -9.25712,-49.384804 -4.01014,-30.141936 -12.3799,-51.5929076 -25.59633,-65.601191 -3.9425,-4.178714 -8.34049,-10.135299 -9.77329,-13.236855 -5.17952,-11.211944 -29.21014,-19.7437 -38.48795,-13.664641 -2.49456,1.634504 -5.69828,6.568103 -7.11935,10.963559 -2.85708,8.837087 -6.99006,12.456043 -12.02062,10.525629 -2.56497,-0.984277 -3.14332,-2.966317 -2.58226,-8.849661 0.84513,-8.862045 -0.30863,-9.237465 -8.70562,-2.832769 -11.77858,8.983969 -15.27525,4.371011 -7.82751,-10.3264 6.66896,-13.160536 10.48234,-14.658985 29.78534,-11.704045 17.04523,2.609341 19.88144,1.61418 16.9999,-5.964829 -4.82292,-12.685227 -26.95503,-20.577126 -39.5056,-14.086976 -9.37318,4.847061 -12.78764,14.411719 -13.5469,37.947774 -0.76928,23.8465706 2.34044,44.013138 12.12065,78.602537 13.14526,46.490508 25.10654,76.019542 39.91885,98.548392 9.57163,14.55807 33.44886,38.05914 46.55359,45.82024 11.5089,6.816 28.25019,11.98227 36.89542,11.38574 l 5.69824,-0.39317 -0.56409,-11.3965 z"
         id="path4732"
         inkscape:connector-curvature="0" />
      <path
         style="fill:#717171"
         d="m -23.928555,386.41416 0,-721.56757 41.312283,-1.47281 c 22.721756,-0.81004 66.95439,-1.54572 98.294742,-1.63483 51.86226,-0.14739 57.55646,0.15101 63.37059,3.32195 4.5363,2.47401 13.18552,3.96567 29.83638,5.14569 39.17027,2.77588 156.6897,5.79342 241.09013,6.19044 l 79.77544,0.37525 17.59786,-6.1731 c 20.19811,-7.08524 33.94488,-7.86311 48.88168,-2.76599 8.28016,2.82557 10.12158,4.45751 14.3708,12.73602 6.01822,11.72488 10.62108,13.21425 13.70639,4.43504 4.16493,-11.85121 35.50541,-73.10597 45.7656,-89.44854 5.62208,-8.95495 16.73582,-23.60307 24.69718,-32.55141 12.07971,-13.57719 14.47524,-17.35172 14.47524,-22.80804 0,-12.87099 16.85013,-24.7163 38.58085,-27.12158 13.4047,-1.48371 23.68531,-7.36478 25.74442,-14.72721 0.89503,-3.20016 5.3785,-9.6648 9.96329,-14.36585 4.58481,-4.70106 11.00573,-12.4789 14.26871,-17.28409 4.12814,-6.07923 7.64815,-9.07981 11.57233,-9.86464 4.55783,-0.91157 6.27658,-2.7958 8.9603,-9.82303 2.21542,-5.80098 5.1775,-9.6553 8.89929,-11.57992 5.08143,-2.62771 6.0882,-2.58378 11.29654,0.49286 l 5.71795,3.37767 4.6276,-5.913 c 3.05114,-3.89864 7.44335,-6.622 12.893,-7.99424 7.80576,-1.96552 12.72485,-7.32595 12.72485,-13.86657 0,-1.09881 1.4352,-5.02228 3.18931,-8.71882 6.69156,-14.10142 43.34792,-23.58924 91.03903,-23.56378 41.93047,0.0224 66.20057,3.7856 105.21027,16.31343 13.3797,4.29686 30.1409,7.74293 50.9256,10.47025 67.7727,8.89298 81.3372,12.94092 137.1316,40.92285 49.6064,24.87856 88.1838,55.96566 126.3817,101.84307 20.0827,24.12031 33.8256,44.53544 81.559,121.15641 36.6836,58.884 43.6956,71.32857 47.4035,84.13027 8.4381,29.13325 19.2743,34.32196 90.3343,43.25505 17.2372,2.16693 43.734,6.01364 58.8819,8.54824 23.0146,3.85093 35.1131,4.68099 73.6072,5.05007 l 46.0657,0.44165 -0.017,648.30321 -0.017,648.30324 -408.0668,0 c -405.65454,0 -408.0871,-0.023 -411.50468,-3.7989 -4.2964,-4.7474 -6.99652,-4.7473 -19.48939,10e-4 -9.89584,3.7612 -14.63057,3.7979 -490.524,3.7979 l -480.533485,0 0,-721.56764 z M 1150.8598,746.34963 c 39.5654,-6.26693 40.0259,-6.39457 56.9825,-15.79258 9.4021,-5.211 42.7608,-22.86958 74.1306,-39.24127 55.2897,-28.85541 57.2262,-30.05751 63.2548,-39.26631 18.2913,-27.94029 25.7173,-69.61502 27.9097,-156.62917 l 1.2443,-49.3848 -12.2559,-16.14503 c -14.0021,-18.44521 -21.1345,-31.37593 -19.1563,-34.72948 0.7492,-1.27001 4.0671,-5.72807 7.3732,-9.90678 9.2691,-11.71552 26.2057,-40.16863 38.7759,-65.14232 18.791,-37.333 44.1323,-128.35836 56.4246,-202.67525 2.7418,-16.57643 3.4452,-31.293951 3.4044,-71.228076 -0.051,-50.1411469 -0.082,-50.5205741 -8.0726,-98.769599 -4.4116,-26.6393 -11.0185,-73.181015 -14.6818,-103.426035 -8.9267,-73.69992 -12.5719,-88.10299 -24.7142,-97.65417 -8.498,-6.68451 -11.6745,-6.7166 -21.7984,-0.22012 -24.4575,15.69432 -86.0398,9.99349 -121.1397,-11.21419 -13.0607,-7.89138 -13.4866,-8.00491 -19.1131,-5.09533 -7.8587,4.06388 -9.9281,3.79963 -18.4795,-2.35981 -11.0568,-7.96408 -13.694,-8.49358 -20.7091,-4.15803 -3.4237,2.11602 -11.2337,4.76335 -17.3554,5.88296 -6.1217,1.11963 -13.9154,3.34557 -17.3193,4.94655 -9.1411,4.29944 -14.074,1.42099 -37.1375,-21.67045 -12.2885,-12.30329 -21.0601,-19.66932 -22.6819,-19.04701 -1.5712,0.60293 -3.6457,6.68007 -5.1119,14.97482 -3.4461,19.4953 -6.0355,23.82197 -15.7908,26.3843 -4.4329,1.16436 -9.4378,3.8822 -11.122,6.03967 -4.4953,5.75853 -9.6113,3.62921 -29.127,-12.12281 -24.4064,-19.69962 -36.0083,-26.28493 -46.3081,-26.28493 l -8.44243,0 1.2377,9.02223 c 3.79201,27.64192 3.67873,33.47827 -0.75844,39.07295 l -4.24973,5.3583 -18.2753,-1.28072 c -16.42166,-1.15081 -18.75694,-0.90275 -23.02384,2.44563 -7.84508,6.15633 -15.3208,9.29751 -32.24693,13.54971 -17.99206,4.51998 -34.4042,14.07577 -38.65973,22.50921 -1.45516,2.88375 -3.12338,9.94422 -3.70718,15.68995 -0.76434,7.52273 -5.02781,18.95313 -15.23206,40.83743 -16.23681,34.82185 -21.3042,49.81221 -29.85704,88.322818 -3.36419,15.147838 -13.25182,50.788999 -21.97253,79.202601 l -15.85583,51.661058 9.32036,21.72141 c 5.12618,11.946773 10.60523,26.641823 12.17567,32.655683 1.57043,6.01385 6.90126,17.43805 11.84627,25.38711 7.07456,11.37231 9.02114,16.2637 9.13266,22.94875 0.13371,8.01628 -0.28146,8.71747 -7.35458,12.42098 -9.39432,4.9189 -11.36519,11.3798 -9.92051,32.52128 1.55002,22.68297 8.1608,48.69328 17.37245,68.35238 4.46427,9.52749 8.11687,19.56358 8.11687,22.30242 0,6.80329 5.93518,14.22562 44.81681,56.04636 l 7.71516,8.29837 10.53519,-1.36589 c 16.81448,-2.17998 18.63015,-1.79248 29.09686,6.20967 10.3187,7.88899 32.85696,20.81935 60.38273,34.64199 8.8145,4.42638 23.719,13.38571 33.1211,19.90965 19.8551,13.77701 31.2835,19.7452 48.4351,25.29391 30.1682,9.75974 60.2345,13.63294 105.4175,13.58011 72.4128,-0.0847 109.9394,-6.92124 129.7153,-23.63153 3.4394,-2.90617 6.643,-4.8943 7.1192,-4.41806 0.4763,0.47622 -1.77,4.84543 -4.9918,9.70932 -23.7122,35.79892 -62.2289,58.79727 -110.3946,65.91666 -29.4983,4.36016 -133.0897,-0.0767 -171.027,-7.32534 -9.0435,-1.7279 -20.5128,-0.47106 -30.51432,3.34384 -2.94086,1.12174 -6.96686,2.03954 -8.94664,2.03954 -5.10297,0 -81.85846,-75.78377 -104.84549,-103.51814 -49.09208,-59.23074 -57.66974,-69.14842 -59.88072,-69.23532 -2.91114,-0.11435 -2.91765,-0.50713 0.45535,27.44818 4.09202,33.91452 3.66445,63.29811 -1.27692,87.75155 -5.35692,26.50993 -5.76986,54.95837 -0.97797,67.37579 2.00358,5.192 6.92796,12.10238 11.87134,16.65902 4.64613,4.28265 8.4475,8.88267 8.4475,10.22225 0,9.44728 35.81549,67.34037 63.66122,102.9037 13.65876,17.44434 41.56645,45.06585 54.10253,53.54774 20.90766,14.14611 48.10582,24.80808 91.05902,35.69617 39.9771,10.13367 48.2183,10.30988 99.8322,2.13453 z m 166.0985,-310.1612 c 1.0999,-2.28184 1.9998,-5.81979 1.9998,-7.86208 0,-4.4629 6.7043,-13.24564 8.6395,-11.31783 1.8989,1.89163 -2.0807,10.8599 -7.8336,17.65366 -3.338,3.94199 -4.1949,4.40808 -2.8057,1.52625 z M 1078.2072,279.61104 c -3.3952,-0.98033 -6.1731,-2.63388 -6.1731,-3.67453 0,-5.04491 21.4135,-7.92309 91.1719,-12.25435 61.1178,-3.79476 89.4785,-7.17715 102.1898,-12.18748 15.292,-6.02755 36.1688,-4.81853 38.8819,2.25176 2.983,7.77358 -7.2747,10.39301 -68.0922,17.3881 -83.0811,9.55581 -143.0891,12.7756 -157.9783,8.4765 z m 123.3485,-93.10076 c -4.0417,-1.16483 -7.6463,-4.11645 -10.0944,-8.26576 -4.2955,-7.28034 -11.2444,-10.35664 -34.3912,-15.22522 -15.9681,-3.35862 -18.2579,-4.853 -13.4903,-8.80369 2.4845,-2.05872 10.9481,-2.42516 41.2914,-1.78777 76.7724,1.61266 78.9479,1.53401 89.982,-3.25313 5.5157,-2.39296 10.9279,-3.79497 12.0271,-3.11563 4.0326,2.49228 -8.567,12.09096 -23.7258,18.07488 -8.4835,3.34884 -22.7912,10.23822 -31.7949,15.30978 -16.9577,9.55176 -19.2747,10.10111 -29.8039,7.06654 z m -53.0701,-5.50241 c -2.3506,-0.94481 -4.2737,-2.17272 -4.2737,-2.72874 0,-2.0863 7.0103,-0.90593 10.5586,1.77782 4.3031,3.2547 0.7747,3.78855 -6.2849,0.95092 z M 933.85162,-10.833083 c -6.15946,-2.475812 -5.29739,-6.17158 3.23839,-13.88315 8.97286,-8.10642 20.55904,-14.267895 32.28974,-17.171474 8.8556,-2.191926 11.88986,-6.554769 7.9012,-11.360802 -1.09752,-1.32243 -8.43336,-4.423435 -16.30188,-6.891117 -7.86852,-2.467702 -14.3064,-5.169031 -14.3064,-6.002951 0,-2.520182 9.81943,-6.75094 20.89357,-9.002108 27.75988,-5.643068 117.12166,-8.365082 132.92726,-4.04906 26.4965,7.235386 43.5356,25.24078 32.7967,34.656638 -6.3289,5.549161 -16.5187,9.589199 -25.0977,9.950695 -8.3862,0.353368 -8.6169,0.528855 -8.6169,6.554009 0,6.630308 -7.6931,15.225562 -13.8767,15.503997 -1.7699,0.07977 -9.6286,0.330517 -17.4636,0.557364 -7.8351,0.226867 -21.9904,1.132907 -31.4563,2.0134566 -20.3747,1.8953316 -23.3013,0.8075364 -30.3956,-11.2980266 -5.6979,-9.722708 -8.1696,-10.315611 -16.62576,-3.988126 -9.66827,7.234455 -17.32525,10.498733 -31.73879,13.530713 -15.23371,3.2045036 -18.12234,3.3096932 -24.16723,0.879942 z m 382.45048,-13.424099 c -2.7872,-2.192419 -7.1905,-8.175578 -9.7852,-13.295908 -5.1899,-10.241761 -6.201,-10.605689 -17.9495,-6.460576 -9.5132,3.356476 -23.6048,3.692786 -32.0066,0.763888 -4.4081,-1.536684 -5.9817,-3.252939 -5.9817,-6.524302 0,-7.81919 3.599,-14.252016 9.8389,-17.585908 3.341,-1.785014 11.8933,-8.616793 19.0053,-15.181723 19.8875,-18.357889 36.8941,-24.064699 70.8751,-23.783249 13.4794,0.11169 26.9597,1.53591 37.9883,4.01362 28.0065,6.291985 33.1762,9.426135 21.984,13.327762 -9.5579,3.331878 -11.31,8.411048 -12.9179,37.446765 l -1.4684,26.517301 -13.543,-0.547678 c -7.4487,-0.301228 -19.8423,0.76649 -27.5415,2.372712 -20.0248,4.177593 -32.2653,3.839706 -38.4978,-1.062704 z M 780.64774,185.34074 c -2.0148,-25.79408 -6.45286,-53.88309 -13.42977,-84.99884 -3.51364,-15.670175 -7.30821,-36.234481 -8.4324,-45.69847 -3.4814,-29.308358 -12.44277,-52.3200415 -26.46193,-67.950995 -3.90345,-4.352207 -8.1281,-10.302733 -9.38813,-13.22335 -4.49816,-10.426328 -32.12054,-18.68132 -40.93745,-12.234229 -1.80475,1.319675 -4.44914,5.796198 -5.87641,9.947827 -2.92117,8.497148 -6.59331,11.646417 -11.42022,9.794164 -2.66708,-1.023462 -3.03587,-2.66298 -1.99064,-8.849661 0.70561,-4.176416 0.73507,-7.593483 0.0655,-7.593483 -0.66959,0 -4.36207,2.136842 -8.20554,4.748539 -12.06453,8.198066 -15.01776,5.197446 -8.1445,-8.275259 5.87049,-11.507076 7.82472,-12.386088 24.41034,-10.979571 8.06659,0.684075 16.37598,1.449938 18.46533,1.701933 2.89213,0.348809 3.94507,-0.817356 4.41149,-4.885847 1.26017,-10.992106 -21.15548,-24.4537 -35.48022,-21.30747 -8.74801,1.921391 -16.65409,12.181007 -19.35185,25.112607 -5.54159,26.563514 3.91319,78.788775 24.8365,137.189149 10.57131,29.506236 14.29525,37.413906 25.55776,54.271126 24.00149,35.92434 57.00877,59.58849 83.38695,59.78318 l 9.28343,0.0686 -1.29821,-16.61988 z"
         id="path4730"
         inkscape:connector-curvature="0" />
      <path
         style="fill:#4d4d4d"
         d="m -22.02914,386.67877 0,-721.30299 7.122808,-0.14606 c 3.917544,-0.0804 47.295441,-0.84002 96.395327,-1.68822 89.030195,-1.538 89.293455,-1.53114 96.985855,2.52487 6.44164,3.3965 13.01802,4.3747 39.88772,5.93306 55.04487,3.19242 194.62337,6.07837 257.2551,5.31906 l 59.83159,-0.72539 13.2959,-5.30094 c 11.66994,-4.6527 15.27032,-5.21751 29.44094,-4.61849 20.02992,0.84669 26.32425,3.76371 31.53183,14.61302 7.06988,14.72915 13.32423,14.65224 17.7456,-0.2182 2.91423,-9.80146 26.60767,-56.75664 40.42419,-80.11185 5.50973,-9.31354 16.53222,-24.3364 24.49444,-33.38411 16.54383,-18.79925 18.76301,-22.33885 18.76301,-29.92705 0,-10.40986 14.8438,-20.26352 34.77828,-23.08658 17.67801,-2.50351 29.80184,-10.10513 29.80184,-18.68567 0,-1.35215 3.63264,-6.0803 8.07252,-10.50701 4.43988,-4.4267 11.07445,-12.31204 14.74345,-17.52296 4.66174,-6.62083 8.30514,-9.76487 12.09673,-10.43879 4.35994,-0.77493 6.04123,-2.63291 8.55867,-9.45816 1.92107,-5.20835 5.1148,-9.6062 8.25672,-11.36972 4.63513,-2.60163 5.64974,-2.56529 10.63743,0.38102 5.48445,3.23974 5.54952,3.22204 12.31731,-3.35075 3.74206,-3.63424 8.44032,-6.6077 10.44057,-6.6077 4.86978,0 13.63585,-7.08276 13.68791,-11.0595 0.023,-1.75237 1.70714,-6.85563 3.74267,-11.34059 4.52015,-9.95949 12.90789,-14.16867 39.69081,-19.91785 14.56517,-3.12655 25.16763,-3.92561 52.44529,-3.9526 43.95903,-0.0435 67.86983,3.7871 106.36723,17.04045 7.5777,2.60873 30.0422,6.99301 52.2339,10.19421 72.1209,10.40357 70.2714,9.88912 118.0282,32.83009 48.3457,23.22378 78.0069,43.64947 110.7973,76.2987 35.6077,35.45441 50.7692,56.40744 111.9459,154.70794 29.5377,47.462 43.6205,71.84232 44.9658,77.84531 4.7025,20.98355 13.0172,31.21006 30.3652,37.34688 13.2065,4.67174 20.8804,6.05754 68.3682,12.34623 24.4841,3.2424 50.9271,7.13054 58.7622,8.64033 8.7,1.67646 33.658,3.22523 64.1118,3.97846 l 49.8662,1.23338 -0.024,647.39558 -0.024,647.39552 -407.1297,0 -407.12964,0 -5.12376,-4.7485 c -2.81807,-2.6117 -5.90912,-4.7485 -6.86903,-4.7485 -0.95989,0 -6.41687,2.1368 -12.12663,4.7485 l -10.38123,4.7486 -479.72407,0 -479.72408,0 0,-721.30303 z m 1175.22924,360.57238 36.5297,-5.73223 22.3522,-12.13413 c 12.2936,-6.67377 45.0026,-23.91392 72.6866,-38.31143 27.684,-14.39754 52.6417,-28.3151 55.4616,-30.92796 2.8199,-2.61287 8.155,-10.87871 11.8558,-18.36856 13.8774,-28.08569 19.2931,-62.52364 22.0999,-140.52976 l 1.909,-53.05508 -7.2,-10.19935 c -28.9188,-40.96555 -28.1586,-38.96544 -19.1125,-50.29061 19.4901,-24.40054 48.0422,-78.37172 57.4601,-108.61554 17.2967,-55.54449 31.5859,-114.10508 39.2121,-160.70015 3.4854,-21.295868 4.205,-33.368761 4.2455,-71.228079 0.048,-45.2932684 -0.01,-45.9396394 -8.8461,-100.669014 -4.8922,-30.295675 -11.5123,-77.306207 -14.7113,-104.467847 -8.4796,-71.99643 -13.3565,-89.53 -27.2605,-98.00846 -7.6388,-4.65807 -14.8777,-4.57989 -19.2103,0.20749 -15.2734,16.87703 -92.6463,10.17642 -121.7951,-10.54766 -8.9997,-6.39854 -18.2773,-8.49576 -20.6439,-4.66658 -2.247,3.63576 -11.4449,1.75709 -18.8576,-3.85167 -8.3095,-6.28724 -13.4614,-7.0287 -19.4913,-2.80517 -2.2302,1.56211 -9.9904,4.08877 -17.2448,5.61478 -7.2545,1.52603 -15.3863,3.77536 -18.0709,4.9985 -2.6845,1.22317 -7.0861,1.6705 -9.7812,0.99406 -2.6951,-0.67644 -14.5108,-10.60442 -26.257,-22.06216 -18.0468,-17.60352 -26.1054,-23.81966 -26.1054,-20.13677 0,5.43107 -6.6428,33.5493 -8.6666,36.68481 -1.5835,2.45346 -5.6011,4.72896 -9.7104,5.49986 -3.855,0.72322 -8.9293,3.38679 -11.2761,5.91905 -4.2125,4.54532 -4.3354,4.55998 -9.6251,1.14808 -2.9469,-1.9008 -13.478,-9.78527 -23.4025,-17.52102 -19.1138,-14.89858 -33.8088,-22.92446 -42.0294,-22.95502 -7.86901,-0.0293 -9.42405,3.42578 -7.32126,16.26672 2.88248,17.60211 2.37074,30.42334 -1.36336,34.15743 -2.76342,2.76341 -5.64736,3.04608 -20.01336,1.96159 -16.76424,-1.26553 -16.7979,-1.25901 -27.63684,5.35303 -6.18649,3.77392 -17.72253,8.34832 -26.83249,10.63991 -18.95449,4.76795 -27.96055,9.07564 -36.19957,17.31467 -7.31588,7.31589 -9.05839,11.47851 -9.20156,21.98137 -0.0792,5.80562 -4.29621,17.0762 -15.50805,41.44678 -15.58352,33.87313 -22.63632,55.55674 -33.33183,102.477694 -2.85072,12.506017 -11.48343,43.0030869 -19.18381,67.771273 -7.70038,24.768187 -14.00068,46.681932 -14.00068,48.69723 0,2.01528 3.04168,10.247479 6.75929,18.293782 3.71763,8.046304 9.42549,22.910881 12.68415,33.032411 3.25865,10.12153 8.84328,22.82677 12.41025,28.23388 8.01494,12.14963 11.86933,22.95177 10.01687,28.07277 -0.77261,2.1358 -4.46118,5.3551 -8.19684,7.15397 -3.73565,1.79888 -7.21002,4.79046 -7.72085,6.64796 -6.0406,21.96543 0.97157,64.07602 15.85354,95.20647 4.16812,8.71892 7.57838,18.14452 7.57838,20.94578 0,2.80126 1.44895,7.20655 3.21987,9.78951 6.91999,10.09309 48.54042,54.92593 52.01371,56.02831 2.02327,0.64217 8.23332,0.14834 13.80009,-1.0975 11.47936,-2.56896 13.07491,-2.02989 28.78622,9.72573 5.2234,3.90829 24.02761,14.7092 41.78714,24.00205 17.75953,9.29285 39.12799,21.66707 47.48539,27.49826 25.3795,17.70787 46.2226,26.55711 77.2094,32.78022 23.1459,4.6484 68.071,7.30787 100.3859,5.94261 53.6095,-2.26492 77.3769,-6.70226 98.2948,-18.35136 5.4845,-3.05435 9.9719,-4.70065 9.9719,-3.65844 0,1.04221 -4.5406,7.24634 -10.0903,13.787 -27.6447,32.58096 -63.8899,50.18141 -112.7124,54.73249 -31.2486,2.91289 -107.3136,-0.98268 -154.9899,-7.93762 -15.4652,-2.25605 -17.5782,-2.1436 -30.3398,1.61454 l -13.71684,4.03947 -12.29446,-10.78131 c -24.93222,-21.86371 -72.29091,-70.34428 -91.24444,-93.4059 -48.28587,-58.75169 -58.16427,-70.05408 -60.86218,-69.63558 -3.23296,0.50148 -3.28973,-1.61177 1.07961,40.19464 3.53863,33.8582 2.91632,49.04732 -3.2976,80.48608 -2.19405,11.10062 -4.03008,27.88666 -4.08006,37.30233 -0.11244,21.17936 5.2204,34.81551 17.46346,44.65431 4.63822,3.72735 7.83252,7.90348 7.83801,10.24711 0.023,9.79396 37.92033,70.60667 65.20026,104.62482 21.74631,27.1177 50.03203,51.75624 72.49808,63.15011 18.34138,9.302 68.11646,23.98661 101.61876,29.97948 17.4768,3.12624 25.3965,2.61258 71.6689,-4.64846 z m 167.6574,-320.56391 c 0,-2.1611 1.2821,-4.99334 2.8491,-6.29385 3.8674,-3.20959 3.8248,1.39951 -0.06,6.53613 -2.7415,3.62458 -2.7887,3.62048 -2.7887,-0.24228 z m -243.6,-148.15991 c -3.6047,-0.94198 -4.3738,-3.51591 -1.5687,-5.24955 2.831,-1.74968 52.4865,-6.38868 103.3936,-9.65944 53.2364,-3.42041 77.4114,-6.52398 86.1938,-11.06554 7.5424,-3.90037 30.5071,-4.24393 35.583,-0.53234 6.6875,4.89002 2.1754,8.21502 -15.4701,11.39996 -20.1109,3.62992 -72.8249,9.65713 -118.4302,13.54107 -30.9943,2.63962 -82.1739,3.53301 -89.7014,1.56584 z m 122.0374,-94.21989 c -2.6117,-1.32101 -5.8603,-4.72049 -7.2191,-7.55438 -3.307,-6.89698 -6.731,-8.4716 -29.0514,-13.36033 -10.4687,-2.29292 -18.9679,-5.02369 -18.8872,-6.06837 0.319,-4.12549 12.1663,-4.94376 50.4092,-3.48163 56.5571,2.16234 66.4111,1.77096 79.4316,-3.15483 6.079,-2.29974 11.6348,-3.59388 12.3462,-2.87587 2.412,2.43431 -9.7276,10.14054 -25.7048,16.31742 -8.7505,3.38303 -22.2463,9.86006 -29.9906,14.39339 -14.8241,8.67771 -22.729,10.13703 -31.3339,5.7846 z M 1017.3734,-10.852495 c -2.3794,-0.955482 -6.9945,-6.029713 -10.2558,-11.276107 -3.2614,-5.246375 -6.7626,-9.538864 -7.78056,-9.538864 -1.01797,0 -6.86549,3.34865 -12.99449,7.441434 -20.06377,13.398077 -62.1384,18.8431505 -55.56101,7.190408 4.36518,-7.733526 24.51928,-19.919245 40.5672,-24.528024 8.99806,-2.584155 11.73806,-6.977901 7.52054,-12.059692 -1.2686,-1.528574 -8.17831,-4.562719 -15.35493,-6.742545 -7.1766,-2.179826 -13.4512,-4.615123 -13.94355,-5.411776 -1.45457,-2.353528 12.52566,-7.766956 24.72287,-9.573205 6.22436,-0.921749 32.40943,-2.72965 58.18903,-4.017587 51.5591,-2.575873 64.8148,-1.498297 82.5294,6.709001 16.4228,7.608792 24.2167,21.122791 16.3092,28.278952 -5.3932,4.880814 -16.7215,8.914203 -25.0367,8.914203 -7.4865,0 -7.6587,0.149465 -7.6587,6.647954 0,11.821163 -9.4851,17.496806 -26.109,15.623033 -4.8335,-0.544809 -16.5353,0.189182 -26.0039,1.631066 -19.8036,3.0157019 -23.1958,3.0985544 -29.1396,0.711749 z m 304.4338,-11.230578 c -5.4865,-2.269384 -11.7248,-9.532577 -15.0759,-17.552953 -1.601,-3.831843 -3.7614,-7.492567 -4.8008,-8.134949 -1.0394,-0.642364 -5.967,0.233381 -10.9504,1.946141 -10.4558,3.593598 -30.6243,4.060722 -36.6267,0.848335 -3.2402,-1.73409 -3.8448,-3.268684 -2.8627,-7.265757 1.9648,-7.996254 6.48,-13.719363 13.0069,-16.486337 3.314,-1.404902 10.2991,-6.959761 15.5225,-12.344148 5.2234,-5.384368 13.6587,-11.922061 18.7452,-14.528191 19.4289,-9.954718 48.8658,-12.607708 80.1895,-7.227048 30.1299,5.175603 42.116,10.413735 30.5002,13.329109 -9.3183,2.338751 -11.1542,6.757892 -12.7709,30.73955 -0.8283,12.288837 -1.5609,24.693843 -1.6278,27.566709 l -0.1216,5.223392 -17.9518,0 c -9.8735,0 -22.8741,1.282105 -28.8903,2.849123 -11.9917,3.123456 -20.4358,3.456594 -26.2854,1.037024 z M 781.19818,201.28246 c 3.8854,-4.68161 -2.95739,-58.28563 -13.08743,-102.522316 -3.06995,-13.406111 -6.53012,-31.782955 -7.68927,-40.83743 -4.25124,-33.207707 -12.5151,-55.1758698 -27.09533,-72.028775 -4.74885,-5.489063 -9.15596,-11.623852 -9.7936,-13.632844 -2.37938,-7.496746 -26.06489,-17.071262 -36.03855,-14.568041 -6.49378,1.629831 -11.84468,7.832467 -13.25853,15.368986 -1.17164,6.245316 -5.35255,9.670873 -9.02967,7.39828 -1.13125,-0.699156 -1.40112,-4.573792 -0.66191,-9.503231 1.50191,-10.015503 0.0289,-10.383838 -10.6349,-2.659105 -4.30018,3.115022 -8.55884,5.206145 -9.46367,4.646919 -2.56136,-1.582992 3.51193,-14.557936 9.14765,-19.543008 4.34812,-3.846108 6.30248,-4.30645 13.74105,-3.236604 24.75008,3.559713 26.59894,3.588755 27.80841,0.436922 0.6447,-1.680052 -0.40568,-6.242675 -2.33417,-10.139174 -4.5982,-9.29061 -16.82713,-15.817058 -29.63715,-15.817058 -8.09449,0 -10.25479,0.866513 -15.6761,6.287824 -8.11828,8.118272 -11.09369,19.026368 -10.97847,40.247852 0.15537,28.6209794 8.53369,66.303424 25.55012,114.914629 5.30252,15.147834 11.78718,31.815204 14.41037,37.038604 13.90907,27.69638 42.57302,59.09003 64.73933,70.90454 16.47222,8.77961 35.80059,12.28109 39.98182,7.24303 z"
         id="path4728"
         inkscape:connector-curvature="0" />
      <path
         style="fill:#2e2e2e"
         d="m -22.000054,385.74006 c 0.01599,-397.245023 0.657049,-721.40795 1.424561,-720.36205 0.909889,1.23992 15.9362508,1.43863 43.182613,0.57107 22.982926,-0.7318 65.71977,-1.47223 94.97077,-1.64538 50.73594,-0.30032 53.53724,-0.13049 60.86708,3.69161 6.52713,3.40346 13.1017,4.29015 43.68656,5.89179 61.8963,3.24135 205.78879,6.1626 260.722,5.29306 52.27757,-0.82749 52.67615,-0.86472 65.89163,-6.15387 10.45902,-4.18595 16.33543,-5.31709 27.54153,-5.30137 19.65406,0.0276 27.49844,3.5672 32.19691,14.52829 6.27624,14.64187 15.0019,15.95328 18.92925,2.84494 3.02666,-10.10211 29.65506,-62.88899 42.32545,-83.90401 5.53659,-9.18295 16.6899,-24.29669 24.78513,-33.58611 14.79572,-16.9783 18.52116,-23.25101 18.52116,-31.18506 0,-8.69544 14.83571,-17.68048 33.57515,-20.33432 14.92076,-2.11304 25.7109,-7.37064 28.73126,-13.99961 1.25053,-2.74464 2.27371,-5.69232 2.27371,-6.55038 0,-0.85807 3.63263,-5.30522 8.07252,-9.88256 4.43988,-4.57734 10.78856,-12.3197 14.10819,-17.20523 4.2991,-6.32704 7.52297,-9.05955 11.20491,-9.49708 5.29086,-0.62873 5.74864,-1.18753 10.96567,-13.38546 3.66048,-8.55858 10.03053,-10.86368 17.14296,-6.20343 4.76146,3.11983 4.99473,3.05369 10.50383,-2.978 3.1381,-3.43578 9.66597,-7.51288 14.73464,-9.20278 8.48229,-2.82801 9.29969,-3.67913 12.03458,-12.53116 4.54912,-14.72413 6.81398,-17.47744 17.73949,-21.5652 45.69477,-17.0966 121.6815,-14.76673 180.3936,5.53114 11.5501,3.99308 27.2153,7.19016 50.5507,10.3168 43.0915,5.77369 71.0793,11.18303 83.797,16.1959 18.1416,7.15075 65.0445,30.30703 79.633,39.31532 34.4461,21.27029 69.177,51.77209 96.8588,85.06453 20.4486,24.59313 36.9944,49.10822 82.4704,122.19193 33.6388,54.06038 43.593,71.52803 45.9544,80.64092 3.7099,14.31716 6.5157,19.82467 13.4599,26.42079 10.7518,10.21285 25.809,14.18156 81.3696,21.44708 20.8936,2.73219 47.4749,6.64776 59.0696,8.70124 16.6665,2.95174 31.284,3.82608 69.8016,4.1752 l 48.7204,0.44157 -0.024,647.22579 -0.024,647.22583 -407.3315,0 c -403.81351,0 -407.34876,-0.033 -409.34117,-3.7553 -3.56304,-6.6576 -8.25209,-7.8271 -17.35623,-4.3286 -4.57005,1.7562 -8.91905,4.0798 -9.66442,5.1636 -0.9286,1.3502 -152.95484,2.1235 -482.92634,2.4564 l -481.57098,0.4858 0.02909,-722.26364 z M 1133.7651,751.80011 c 54.7325,-8.1177 51.5749,-7.12873 94.021,-29.44775 21.4159,-11.26091 54.7507,-28.68298 74.0772,-38.71569 37.7609,-19.60229 43.1591,-23.93801 51.816,-41.61763 13.5503,-27.67337 19.4607,-66.23562 22.1779,-144.69933 l 1.7102,-49.3848 -6.9865,-10.07079 c -3.8426,-5.53893 -10.6314,-15.26834 -15.0863,-21.62088 -11.2995,-16.11302 -11.6496,-18.72772 -3.8219,-28.5412 23.0165,-28.8555 49.399,-81.17628 61.0949,-121.16129 26.9054,-91.98212 37.9814,-147.79101 40.3351,-203.237448 1.4287,-33.655551 -0.9563,-62.2212574 -9.6736,-115.864337 -3.6499,-22.460587 -8.8204,-58.786905 -11.49,-80.725155 -12.778,-105.00781 -15.795,-116.28517 -33.5861,-125.54188 -7.7665,-4.04093 -13.5696,-3.24308 -21.343,2.93441 -8.9688,7.1275 -18.3101,8.52293 -47.4444,7.08735 -32.0051,-1.57703 -57.0101,-8.7609 -73.1824,-21.02513 -7.5426,-5.71989 -13.4521,-6.2603 -20.1889,-1.84619 -4.5938,3.00997 -5.0925,2.88191 -14.7926,-3.79883 -11.0432,-7.6057 -15.35,-8.39359 -21.6729,-3.96486 -2.3157,1.62193 -10.3255,4.22402 -17.7995,5.78241 -7.4741,1.5584 -15.1156,3.6503 -16.9811,4.64869 -7.8642,4.20876 -11.7315,1.91943 -34.1324,-20.20557 -15.0974,-14.91153 -23.4107,-21.80604 -25.7499,-21.35554 -3.4973,0.67351 -4.0028,2.17443 -8.43,25.027 -2.4007,12.39215 -7.0242,18.34936 -14.2414,18.34936 -2.6591,0 -6.9632,2.12837 -9.5646,4.72973 l -4.7297,4.72974 -7.0553,-4.59735 c -3.8804,-2.52854 -13.4658,-9.80117 -21.3009,-16.16142 -24.2514,-19.68643 -46.43515,-28.19464 -51.01571,-19.5662 -1.08781,2.04913 -1.08128,7.65343 0.0171,14.61228 0.97989,6.20856 1.53019,16.03055 1.2229,21.82664 -0.72381,13.65263 -4.37065,15.76435 -22.54921,13.05713 -13.24638,-1.9727 -17.67716,-0.84745 -31.34005,7.95916 -3.21486,2.07218 -12.97983,5.54331 -21.69995,7.71362 -19.40467,4.82955 -28.36,9.2556 -37.77339,18.66899 -6.37968,6.37968 -7.35199,8.58792 -8.27803,18.80047 -0.82518,9.10033 -4.27606,18.59393 -16.15787,44.45152 -18.1967,39.60029 -19.09503,42.25455 -29.77111,87.96284 -4.6361,19.848891 -14.89733,56.8901307 -22.80275,82.313862 -7.9055,25.423732 -14.37356,47.441052 -14.37356,48.927363 0,1.486331 3.76436,11.515662 8.36525,22.287379 4.60088,10.771736 10.25491,25.935476 12.56452,33.697206 2.3096,7.76171 7.06911,18.43899 10.57671,23.72725 8.42822,12.70695 12.61787,23.05193 11.17587,27.59526 -0.64443,2.03043 -4.1065,4.91792 -7.69348,6.41666 -9.30425,3.88757 -10.85062,9.4973 -9.70288,35.19879 1.15773,25.92468 5.98977,45.77061 16.57754,68.08652 4.1367,8.71892 7.52127,18.20646 7.52127,21.08343 0,6.23888 6.19287,15.13365 23.89839,34.32502 7.22712,7.83362 16.13179,17.74147 19.78816,22.01743 9.8377,11.50474 12.93331,12.65015 27.12268,10.03566 l 11.9821,-2.20779 13.21253,9.58012 c 7.26688,5.26906 27.99495,17.30987 46.06234,26.75735 18.06741,9.4475 38.70423,21.43536 45.85953,26.63972 39.509,28.73641 80.0068,38.72023 156.8182,38.65998 62.2017,-0.0488 90.278,-3.65174 114.4397,-14.68583 5.4846,-2.50468 9.9664,-3.96018 9.9597,-3.23447 -0.03,3.17573 -16.7727,20.44052 -28.2687,29.14934 -16.4688,12.47602 -35.5807,21.51373 -58.5156,27.671 -17.5536,4.71261 -21.1252,4.99976 -62.3075,5.00956 -46.2589,0.0114 -86.1935,-2.57169 -118.2258,-7.646 -17.7269,-2.80815 -20.5125,-2.81845 -31.3404,-0.11587 -6.53627,1.63147 -13.26744,3.51347 -14.95813,4.18221 -2.23379,0.88357 -14.33017,-9.79914 -44.25615,-39.08404 -30.93995,-30.27714 -51.1368,-52.27016 -81.20804,-88.43009 -22.01422,-26.47153 -41.11172,-48.13009 -42.43888,-48.13009 -4.16682,0 -4.22373,3.9245 -0.5234,36.0889 4.1982,36.492 3.58995,59.2216 -2.41433,90.22223 -3.01061,15.54401 -3.85194,25.75679 -3.28595,39.88772 0.88108,21.9977 4.17932,30.24937 16.56258,41.4369 4.25437,3.84356 7.73939,8.48632 7.74448,10.31723 0.0253,9.05616 37.56719,69.5809 62.74007,101.1488 16.4738,20.6589 43.02441,46.42413 58.74709,57.0093 15.86344,10.67996 37.04823,19.53895 65.55556,27.41389 32.308,8.9248 39.7274,10.6342 57.9726,13.35655 8.8798,1.32494 16.145,2.5169 16.145,2.64881 0,0.13182 14.5305,-1.91529 32.2901,-4.54933 z m -46.5357,-473.49817 c -4.701,-0.33249 -9.3594,-1.4053 -10.3518,-2.38403 -1.1397,-1.1239 -1.1397,-1.79358 0,-1.8177 0.9924,-0.0211 7.3602,-0.86558 14.1506,-1.87683 6.7904,-1.01125 39.2704,-3.57844 72.1778,-5.70488 65.0113,-4.20093 93.5477,-7.65916 102.836,-12.46231 6.3191,-3.26773 24.3685,-4.40797 31.5477,-1.99298 2.3505,0.79069 4.2736,2.66213 4.2736,4.15875 0,1.49661 -0.3329,2.72112 -0.7398,2.72112 -0.407,0 -7.4586,1.26072 -15.6702,2.8016 -43.1219,8.09167 -169.1177,18.61583 -198.2239,16.55726 z m 116.814,-94.11648 c -5.1253,-1.54341 -8.4094,-3.9797 -10.0924,-7.48687 -3.6402,-7.58596 -8.7275,-10.15872 -28.6679,-14.49788 -9.8268,-2.13834 -18.2613,-4.2824 -18.7434,-4.76455 -2.7178,-2.7178 14.5857,-3.3646 52.6185,-1.96686 54.1596,1.9904 62.7282,1.63376 74.7681,-3.11193 l 9.7801,-3.85496 -3.4876,3.85382 c -1.9182,2.11962 -10.4403,6.49186 -18.938,9.71612 -8.4976,3.22424 -22.8256,10.09917 -31.84,15.27761 -9.0144,5.17843 -16.707,9.34966 -17.0947,9.26937 -0.3878,-0.0803 -4.1239,-1.17553 -8.3027,-2.43387 z m -190.455,-200.513647 c -3.0549,-3.054848 -6.6433,-8.18327 -7.9742,-11.396492 -1.331,-3.213203 -3.7042,-5.842202 -5.274,-5.842202 -1.5697,0 -7.94001,3.396306 -14.15623,7.547326 -6.21622,4.15104 -14.44401,8.462371 -18.28396,9.580747 -10.26938,2.990914 -33.7766,4.61083 -35.13007,2.420861 -2.88299,-4.664774 27.61961,-25.247181 37.41567,-25.247181 5.52502,0 12.58298,-5.135829 12.54687,-9.129919 -0.0534,-5.895786 -3.26864,-8.456653 -15.99526,-12.73955 -6.94437,-2.337003 -12.65388,-4.996621 -12.68779,-5.910278 -0.21362,-5.758135 45.04686,-10.668655 100.88987,-10.946008 40.7264,-0.202269 43.258,-0.0019 53.8142,4.256134 15.7374,6.348207 24.4214,14.38923 23.6862,21.932416 -0.4711,4.833424 -2.0934,6.655438 -9.049,10.162936 -5.2689,2.656921 -11.9155,4.273685 -17.5696,4.273685 l -9.0946,0 0,7.459802 c 0,5.789969 -1.1164,8.33792 -4.9871,11.382683 -4.2348,3.331062 -7.6017,3.910194 -22.3182,3.838852 -9.532,-0.04616 -21.935,0.814735 -27.5622,1.913224 -16.858,3.2908887 -22.0797,2.6339 -28.2706,-3.557036 z m 308.0063,-7.703762 c -5.2183,-2.108427 -11.3756,-10.029939 -14.0169,-18.033012 -2.6138,-7.919916 -5.6083,-9.130774 -14.7032,-5.945246 -17.4222,6.102176 -40.3961,5.039111 -40.3961,-1.869233 0,-6.06244 6.1757,-14.471418 12.5991,-17.155273 3.6567,-1.527871 10.8369,-7.278028 15.956,-12.778165 10.8396,-11.646569 20.6117,-16.996007 38.9531,-21.323802 17.1208,-4.03978 52.355,-2.65216 73.764,2.905038 8.2285,2.135912 15.2801,3.883469 15.6701,3.883469 0.3901,0 0.7092,0.762083 0.7092,1.6935 0,0.931435 -2.1122,2.223626 -4.6937,2.871555 -7.3056,1.833582 -9.0245,7.532359 -10.6244,35.222663 -0.818,14.158166 -1.5524,25.955796 -1.6319,26.216966 -0.08,0.261169 -7.6237,0.484996 -16.7646,0.4974 -9.1409,0.0133 -21.3209,1.284365 -27.0667,2.826577 -11.5536,3.101118 -21.6352,3.459861 -27.754,0.987563 z M 781.63022,203.74944 c 3.33518,-1.78494 3.62501,-3.32706 2.58822,-13.77077 -3.23855,-32.62209 -7.62416,-60.48031 -14.26068,-90.586476 -4.02999,-18.281873 -7.87692,-38.795559 -8.5487,-45.585969 -2.64809,-26.766656 -13.13434,-53.83155855 -26.38573,-68.101258 -4.50741,-4.853785 -8.80014,-10.780284 -9.53937,-13.169996 -1.52957,-4.944482 -12.84246,-12.710982 -21.95457,-15.072164 -5.43269,-1.407752 -6.18628,-2.413341 -6.57222,-8.770133 -0.86699,-14.280336 -16.11945,-25.946109 -33.92331,-25.946109 -8.24489,0 -10.14334,0.825277 -16.4837,7.16564 -9.05273,9.052727 -11.35919,17.427876 -11.36526,41.269452 -0.0114,44.191684 26.20921,133.749113 49.81516,170.146363 20.23938,31.20639 48.31365,54.56405 73.82923,61.42557 12.55328,3.37578 17.91631,3.60999 22.80093,0.99585 z M 666.48075,-29.563199 c 0.73442,-5.340035 0.50723,-9.768598 -0.5342,-10.412234 -0.9967,-0.615999 -5.41741,1.491611 -9.82381,4.683578 -4.4064,3.191987 -8.47453,5.340682 -9.04032,4.774903 -1.91851,-1.918505 3.84002,-12.825423 8.3219,-15.762052 3.40862,-2.233427 6.98615,-2.604877 15.20171,-1.578414 15.71487,1.963445 17.0025,2.802398 10.43299,6.797552 -3.64188,2.214756 -6.09552,5.63944 -6.97051,9.729109 -2.93661,13.725556 -9.4408,15.240681 -7.58776,1.767558 z"
         id="path4726"
         inkscape:connector-curvature="0" />
      <path
         style="fill:#242424"
         d="m 73.663387,1103.0012 c -1.576292,-6.2804 2.264373,-49.116 5.95842,-66.4552 5.456329,-25.6111 13.406068,-49.46067 26.543473,-79.63174 13.38792,-30.74643 15.51834,-43.429 7.15188,-42.57574 -6.22973,0.63533 -8.08547,-0.0909 -8.08547,-3.16412 0,-3.43777 35.50184,-44.25171 42.45522,-48.80774 2.45817,-1.61067 12.89523,-10.75333 23.19347,-20.31704 10.29823,-9.56371 22.41948,-19.55422 26.93612,-22.20115 4.51662,-2.64693 9.48735,-7.27873 11.04603,-10.29289 1.6177,-3.12826 4.38537,-5.48029 6.44878,-5.48029 1.98814,0 6.88041,-3.07986 10.87171,-6.84414 3.99129,-3.76428 9.82163,-8.16464 12.95631,-9.77859 3.13466,-1.61395 8.26359,-4.79225 11.39763,-7.06286 9.03149,-6.54336 43.10753,-21.44172 58.3013,-25.48989 33.33899,-8.88267 69.68106,-23.74247 100.29988,-41.01125 8.87976,-5.00811 18.70924,-10.42878 21.84327,-12.0459 6.53409,-3.37152 23.32217,-15.0595 39.88773,-27.77012 61.63057,-47.28864 76.27833,-56.13995 92.90412,-56.13995 14.60943,0 66.65335,-20.06867 70.80764,-27.30417 0.84554,-1.4727 4.62339,-3.95829 8.39517,-5.52352 4.17239,-1.73149 9.02091,-6.08831 12.38176,-11.12608 3.03819,-4.55409 8.34487,-9.69687 11.79265,-11.42844 8.66262,-4.35057 13.60405,-9.15432 13.60405,-13.22504 0,-5.2711 10.46629,-16.01085 19.94547,-20.4666 9.92295,-4.66431 15.655,-4.96444 20.78014,-1.08798 2.02785,1.5338 5.33595,2.78872 7.35133,2.78872 7.27573,0 44.18602,-10.05102 50.1876,-13.66656 3.44668,-2.07638 10.87343,-10.88393 16.9207,-20.0666 12.27033,-18.63232 12.58831,-18.51125 14.72075,5.60449 1.40488,15.88789 4.48313,28.01218 11.96404,47.12282 13.68811,34.9675 53.83625,89.39479 100.25097,135.90638 31.38012,31.44562 53.42158,43.06121 111.17027,58.58542 31.1064,8.36216 45.688,10.87014 74.0772,12.74109 15.1478,0.99827 31.0107,2.29138 35.2508,2.87351 6.3335,0.86955 9.4667,0.0222 17.557,-4.74793 5.4162,-3.19351 14.768,-7.21894 20.7819,-8.94539 6.0138,-1.72646 23.3279,-9.75175 38.4758,-17.83403 15.1478,-8.08226 42.072,-22.19475 59.8316,-31.36108 51.0879,-26.36833 59.301,-31.12445 64.5791,-37.39704 11.2341,-13.35106 22.6847,-42.28784 25.4183,-64.23496 4.9832,-40.00725 5.7837,-51.46785 6.9654,-99.7193 l 1.256,-51.28422 -6.4107,-8.54737 c -13.6956,-18.26022 -16.7812,-23.93379 -16.7812,-30.85549 0,-3.79974 0.8296,-7.42135 1.8436,-8.04805 2.3851,-1.47406 11.3957,3.20333 16.0248,8.31843 2.7259,3.01208 5.9919,4.02916 13.2915,4.13927 11.1083,0.16753 24.2452,3.70762 24.1283,6.50198 -0.044,1.04468 -3.2461,2.32679 -7.1166,2.84912 -8.7953,1.18697 -11.0417,5.69825 -2.8374,5.69825 3.1696,0 9.8651,-0.80805 14.8787,-1.79565 5.0137,-0.9876 18.5455,-3.62722 30.0707,-5.86581 l 20.955,-4.07018 12.2848,5.57345 c 6.7566,3.06541 18.2679,7.10858 25.5807,8.98484 11.953,3.06686 88.914,24.78813 117.7637,33.2374 40.5047,11.86264 80.0265,23.95311 93.0714,28.47227 8.3574,2.89528 24.8006,8.40248 36.5404,12.23822 11.7397,3.83572 24.3502,8.22969 28.0232,9.76436 l 6.6781,2.79032 -0.1096,297.23015 -0.1096,297.23021 -404.5848,0 c -323.1165,0 -404.31486,-0.4781 -403.24431,-2.3743 1.07235,-1.8994 0.82886,-1.8994 -1.21751,0 -2.59644,2.41 -7.30376,3.4479 -4.9465,1.0906 2.36683,-2.3668 -6.88961,-10.1165 -11.90323,-9.9656 -6.61888,0.1991 -25.00467,7.0569 -20.08763,7.4925 3.23427,0.2866 3.09312,0.5626 -0.94971,1.8573 -2.61169,0.8364 -198.11648,1.606 -434.45507,1.7101 l -429.706523,0.1894 -1.25003,-4.9806 z M 1781.7739,928.96185 c -0.5269,-1.30585 -0.958,-0.23742 -0.958,2.37427 0,2.6117 0.4311,3.68012 0.958,2.37427 0.527,-1.30585 0.527,-3.44269 0,-4.74854 z M 763.09329,22.003345 c -1.65975,-6.612929 -19.81348,-37.441352 -23.79977,-40.416425 -0.73048,-0.54517 -3.62543,-4.391486 -6.43322,-8.547369 -10.50311,-15.545898 -37.65344,-44.896576 -44.99575,-48.642337 -4.12055,-2.102159 -12.74809,-4.401952 -19.17232,-5.110643 l -11.68039,-1.288544 -0.5306,-9.497077 c -0.29185,-5.223392 -3.83257,-25.30971 -7.86831,-44.63626 -13.61809,-65.21519 -14.58178,-80.72042 -6.58146,-105.89241 2.73921,-8.61859 6.00122,-15.67017 7.24891,-15.67017 1.24769,0 4.16432,2.56421 6.48141,5.69824 7.46659,10.0991 10.75962,7.80073 14.2875,-9.97193 3.9694,-19.99699 3.92752,-22.31813 -0.40279,-22.31813 -2.25375,0 -4.72768,2.69956 -6.91102,7.54136 -1.87039,4.14776 -5.01839,9.00536 -6.99557,10.79469 -9.66154,8.74357 -13.37568,-12.14371 -9.06034,-50.95294 l 2.49809,-22.46615 6.29136,0 c 6.64204,0 9.01844,-4.77099 3.44223,-6.91078 -4.41604,-1.6946 -3.4688,-4.33832 4.74854,-13.2531 4.17871,-4.53335 7.59766,-9.70181 7.59766,-11.48544 0,-1.78364 2.99158,-9.0238 6.64796,-16.08924 3.65637,-7.06545 6.64795,-14.65614 6.64795,-16.8682 0,-6.2474 3.12376,-10.68039 12.6536,-17.95697 14.96432,-11.42611 23.22808,-7.61854 12.88789,5.93814 -7.34201,9.62589 -9.03764,16.0931 -6.5964,25.15914 1.15219,4.27895 2.83226,7.77989 3.73349,7.77989 4.68867,0 12.4958,-19.62981 14.44,-36.30717 1.18833,-10.19331 0.97205,-10.94255 -4.88961,-16.93895 -5.83787,-5.97205 -5.96285,-6.39827 -2.59781,-8.85885 5.60104,-4.09558 8.95322,-2.20917 14.17148,7.97484 6.42949,12.54783 11.26963,13.39402 17.76438,3.10566 2.8726,-4.55048 6.51536,-7.82234 9.12126,-8.19256 4.40976,-0.6265 4.79595,-2.44348 2.29012,-10.77447 -1.17167,-3.89538 1.58626,-7.24275 21.72878,-26.37302 13.55022,-12.86924 25.36594,-25.92077 28.63257,-31.62722 3.05899,-5.34373 8.14627,-12.18995 11.30505,-15.21382 5.28798,-5.06213 6.53078,-5.40469 15.67778,-4.32136 l 9.93451,1.1766 10.56854,-10.07896 c 11.36422,-10.83778 32.17784,-20.46311 49.95808,-23.10328 13.65683,-2.02789 18.19801,1.04904 5.40113,3.65961 -5.6608,1.15481 -10.61999,3.08249 -11.0204,4.28375 -0.98607,2.95818 15.51541,6.32485 31.37819,6.40185 26.84005,0.13028 64.01065,6.71072 95.93081,16.98298 10.2428,3.29622 25.6281,7.49985 34.1895,9.3414 12.0924,2.60104 15.7184,4.13526 16.2477,6.8748 0.9842,5.09339 -4.8904,8.52617 -14.591,8.52617 -5.3778,0 -10.8878,1.51594 -15.2026,4.18261 -5.7056,3.52629 -9.3324,4.14675 -23.1124,3.95408 -8.9897,-0.12569 -22.8902,-1.58049 -30.89001,-3.2329 -21.24004,-4.38725 -62.19064,-3.81506 -62.19064,0.86897 0,2.93258 19.40122,13.37571 29.9575,16.12526 16.07346,4.1866 43.80695,3.61715 61.09325,-1.25443 12.3683,-3.4856 17.5429,-3.901 37.1986,-2.98626 24.7242,1.15063 39.3729,3.97829 42.9523,8.29114 3.2414,3.90567 -0.9024,7.21151 -12.5752,10.03216 -9.6055,2.32108 -14.2709,4.91633 -14.2709,7.93849 0,2.50582 12.5977,1.94994 27.5408,-1.21524 18.8783,-3.99875 20.1952,-3.83654 19.5416,2.40724 l -0.5467,5.22339 18.0444,1.04627 c 9.9245,0.57547 21.9727,2.21328 26.7738,3.63959 4.8011,1.42633 10.1956,2.03068 11.9876,1.343 3.0662,-1.17661 3.06,-1.58601 -0.1062,-6.9458 -1.8504,-3.13252 -7.8859,-9.59906 -13.4121,-14.37009 -9.1376,-7.88884 -12.8044,-14.15391 -8.284,-14.15391 2.6243,0 7.7333,-5.6008 7.7333,-8.47762 0,-3.99218 -16.7783,-21.56745 -25.4295,-26.63739 -4.3422,-2.54473 -13.7878,-5.99342 -20.9901,-7.66375 -15.8623,-3.67871 -21.1702,-6.31782 -28.6073,-14.22379 -13.2025,-14.03488 -24.7687,-19.01672 -50.7114,-21.84272 -12.601,-1.37265 -21.0294,-6.82034 -20.1452,-13.0207 1.5836,-11.10384 45.3423,-10.16324 88.7599,1.90792 18.0574,5.02041 17.9292,11.99369 -0.2216,12.05294 -7.9837,0.0261 -13.0355,2.45924 -10.4579,5.03691 0.526,0.52594 7.3802,2.56156 15.2317,4.52361 33.0017,8.24697 67.6171,31.2832 126.6486,84.28338 20.5657,18.46443 36.0889,25.88488 36.0889,17.25127 0,-3.79457 -8.5985,-19.47835 -13.7175,-25.0209 -4.117,-4.45764 -3.4512,-10.06857 1.1948,-10.06857 7.4314,0 65.7064,52.0372 65.7064,58.67318 0,1.19893 -2.5643,6.9851 -5.6983,12.85815 -7.8156,14.64613 -7.8525,25.6907 -0.1084,32.48589 4.4473,3.90249 5.21,5.61426 3.7319,8.37599 -2.9969,5.59989 -9.1828,4.05069 -20.2692,-5.07624 -5.7103,-4.70106 -11.2375,-8.54737 -12.2825,-8.54737 -1.2219,0 -1.3612,3.89809 -0.3902,10.92163 0.8304,6.00691 1.57,13.48585 1.6434,16.61989 0.1583,6.75535 0.2967,6.75214 -28.9584,0.67382 -24.1779,-5.02343 -30.6412,-9.01292 -34.7945,-21.47681 -1.7078,-5.12523 -4.6579,-10.45398 -6.5556,-11.84169 -6.5917,-4.8199 -24.7095,1.16445 -30.5605,10.09417 -2.7912,4.25997 -4.1987,4.78049 -10.6035,3.92144 -4.0617,-0.54481 -10.5738,-3.20034 -14.4711,-5.90122 -8.3065,-5.7564 -10.2618,-6.00523 -13.7721,-1.75264 -1.9532,2.36608 -2.0343,3.35079 -0.3237,3.92677 7.8523,2.64386 14.8771,9.64615 15.7613,15.71083 0.7974,5.46931 1.9398,6.75312 7.1228,8.00428 3.3952,0.8196 8.884,2.14401 12.1974,2.94315 8.1915,1.97568 9.3345,6.14468 1.6846,6.14468 -4.5666,0 -6.3169,1.08727 -7.7288,4.80097 -2.0346,5.35124 -18.4971,23.69026 -21.2662,23.69026 -0.9747,0 -5.4991,-2.56421 -10.0543,-5.69824 -10.1088,-6.95503 -13.8035,-7.17117 -15.3776,-0.8996 -2.1787,8.68059 -12.6043,10.28214 -22.5585,3.46533 -2.0606,-1.41115 -6.1768,-2.56573 -9.1471,-2.56573 -2.9702,0 -6.9338,-0.82063 -8.8079,-1.82361 -4.3305,-2.31761 -10.7004,-17.29841 -12.3971,-29.15548 -1.6867,-11.78765 -5.9927,-11.41161 -11.9041,1.03961 -4.6307,9.75346 -10.5308,12.84396 -17.4506,9.14059 -5.9061,-3.16081 -9.638,-9.89264 -12.6559,-22.82897 -3.6782,-15.76711 -8.7264,-24.99553 -18.0291,-32.95834 -10.4682,-8.96034 -21.9519,-11.14539 -26.84137,-5.10718 -4.15772,5.13457 -4.34873,14.47915 -0.58276,28.50975 3.55523,13.24534 3.61323,23.59309 0.14854,26.46858 -1.48534,1.23274 -3.26164,5.56187 -3.94731,9.62031 -1.8755,11.10098 -4.89001,12.64177 -15.63411,7.99093 -9.86624,-4.27077 -11.90756,-3.96747 -11.90756,1.76916 0,3.30584 -0.81839,3.65791 -5.90548,2.5406 -5.03138,-1.10508 -6.70235,-0.42458 -11.2894,4.59761 -4.09293,4.4812 -7.0054,5.89468 -12.14587,5.89468 -3.71905,0 -9.95141,1.70948 -13.84972,3.79883 -3.89828,2.08936 -8.52632,3.79884 -10.28453,3.79884 -6.59525,0 -9.60271,2.68879 -13.91569,12.44118 -5.27095,11.91857 -11.66051,16.50959 -15.55836,11.17896 -1.38856,-1.89896 -2.52464,-4.92885 -2.52464,-6.73309 0,-5.22001 -2.07453,-9.24945 -5.78408,-11.23476 -4.1643,-2.22866 -13.60204,4.91719 -18.17585,13.76193 -2.77248,5.36141 -2.69229,5.92354 1.49279,10.46271 5.12012,5.55332 14.50029,10.03324 18.10864,8.64858 3.78111,-1.45094 11.41845,4.38475 16.71119,12.76899 8.21657,13.01588 8.56783,12.63011 -19.95035,21.91217 -27.00642,8.79002 -37.97689,16.13531 -38.00083,25.44343 -0.0171,6.4292 -5.68157,14.76839 -13.0954,19.27702 -5.90375,3.59027 -9.68506,10.14529 -9.68506,16.78933 0,1.87521 3.06579,6.66016 6.81286,10.63323 9.02171,9.5658 10.28527,13.4925 10.26332,31.89445 -0.019,15.92899 -1.76766,21.36489 -13.24024,41.159001 -2.28501,3.942426 -3.83594,10.042038 -3.83594,15.086258 0,8.849737 -13.67154,68.690134 -18.16523,79.5093942 -3.01986,7.2707341 -23.01961,28.8959768 -26.72398,28.8959768 -1.38809,0 -3.11236,-2.34498 -3.83169,-5.211065 z m 78.78604,-305.818205 c 0.93916,-1.82818 2.20036,-8.34303 2.80264,-14.47743 0.76193,-7.76045 2.35211,-12.49153 5.22719,-15.5519 5.31607,-5.65869 7.21725,-19.91539 3.11033,-23.32384 -3.84694,-3.19267 -10.62472,-0.29517 -32.09742,13.72166 -16.0829,10.49851 -28.78049,22.87297 -27.47977,26.78049 1.38198,4.15166 7.61103,3.09401 11.65622,-1.97914 3.88366,-4.87057 4.61664,-5.08004 10.54477,-3.01349 8.22766,2.86817 12.94754,7.23244 16.17465,14.95597 2.83979,6.79659 7.38342,8.10065 10.06139,2.88768 z m -133.40228,-69.8147 c 3.48225,-5.27374 0.62135,-9.38774 -5.46586,-7.85995 -5.21256,1.30826 -7.56347,5.3022 -5.81027,9.87098 1.50909,3.93262 8.13138,2.75159 11.27613,-2.01103 z m 433.83545,-56.63602 c 10.5294,-5.01376 4.7662,-22.63786 -8.0367,-24.57635 -7.2844,-1.10295 -34.651,6.2831 -38.8544,10.4865 -2.5484,2.54839 -1.7513,3.58608 7.2946,9.49681 5.5855,3.64971 11.4376,7.14376 13.0046,7.76459 3.9657,1.57112 20.8645,-0.44437 26.5919,-3.17155 z m -338.44951,-6.53696 c 0.70724,-7.32023 -3.93012,-10.27253 -8.67798,-5.52467 -2.51083,2.51083 -2.64658,3.89923 -0.78151,7.99264 3.16944,6.95615 8.68808,5.51634 9.45949,-2.46797 z m 37.96196,4.87212 c 3.68019,-3.68019 2.63984,-8.55786 -2.7254,-12.77817 -4.84618,-3.81201 -12.10976,-5.18323 -14.54684,-2.74617 -1.8068,1.80682 3.78221,11.48793 8.56682,14.83922 5.08667,3.56283 5.77365,3.61689 8.70542,0.68512 z m 17.81803,-30.23197 c -0.82098,-11.87361 3.19235,-13.43082 14.34838,-5.56734 4.51673,3.18371 8.53287,5.78855 8.92474,5.78855 0.39187,0 0.58056,-5.74205 0.41932,-12.76009 -0.25187,-10.9631 0.19486,-12.859 3.17213,-13.46241 5.11906,-1.03746 10.22395,4.57302 13.70966,15.06748 3.33173,10.0309 5.52099,11.85058 16.68365,13.86721 8.54211,1.54318 14.12515,-1.52783 10.56852,-5.81333 -1.18549,-1.42842 -3.35196,-2.59711 -4.81441,-2.59711 -5.11766,0 -19.30975,-15.40741 -26.10705,-28.3427 -7.18226,-13.66787 -8.16146,-19.26504 -4.88022,-27.89536 3.34559,-8.7996 -0.3966,-10.51558 -16.2231,-7.43911 -16.41448,3.19077 -20.30259,4.66885 -19.40048,7.37517 0.38718,1.16151 3.49039,2.91098 6.89602,3.8877 7.56191,2.16873 11.61322,7.97628 10.2769,14.73187 -0.5499,2.77995 -5.15881,9.97323 -10.24203,15.98507 -13.61111,16.09769 -17.82719,38.0874 -7.00791,36.55105 3.84297,-0.5457 4.21999,-1.50743 3.67588,-9.37665 z m -26.07489,-24.77609 c 7.017,-3.19715 5.93885,-5.39335 -2.64765,-5.39335 -7.91845,0 -11.86437,3.1034 -7.47826,5.88152 3.43162,2.17356 4.38497,2.12759 10.12591,-0.48817 z m 201.74401,445.401223 c -4.4527,-4.452629 5.5286,-9.810575 11.912,-6.394325 3.3377,1.786305 3.7153,2.765169 1.9071,4.94395 -2.3006,2.77195 -11.529,3.740519 -13.8191,1.450375 z m 284.8028,-7.89568 c -1.4651,-2.370584 3.812,-7.932775 7.5262,-7.932775 3.5463,0 3.4295,-1.758821 -0.3978,-5.987907 -2.5364,-2.80272 -2.6689,-3.970899 -0.7171,-6.32266 3.1845,-3.837123 18.9996,-3.826752 23.884,0.01519 3.625,2.851574 3.6151,2.951407 -0.5866,5.929918 -2.3506,1.666243 -4.2737,5.004504 -4.2737,7.418376 0,4.764341 -1.7954,5.643999 -15.4456,7.567783 -5.2801,0.744153 -9.2742,0.468909 -9.9894,-0.688386 z m -312.0169,-6.996952 c -2.3041,-1.70144 -2.8466,-3.200534 -1.5937,-4.403966 2.8274,-2.715898 20.2234,-5.955389 39.2221,-7.303936 14.5037,-1.029521 16.8106,-0.784819 16.8106,1.783191 0,4.608665 -15.4596,9.729356 -25.3009,8.380467 -4.8324,-0.662364 -11.7903,-0.04597 -16.9253,1.499494 -7.3513,2.212401 -9.2679,2.219428 -12.2128,0.04483 z m 272.2832,-232.327241 c -13.4812,-12.52613 -20.2144,-17.12585 -38.0291,-25.97936 -8.4083,-4.17872 -15.5916,-8.56893 -15.9629,-9.75603 -0.8726,-2.78984 9.4996,-6.389 18.4121,-6.389 8.4089,0 12.3491,2.66056 16.7146,11.28649 2.4278,4.79707 6.5963,8.20079 15.655,12.78275 13.3607,6.75791 22.6606,16.13933 22.7419,22.94129 0.09,7.56717 -8.4202,5.4381 -19.5316,-4.88614 z m 136.2874,4.03172 c -5.0614,-7.6472 -5.8082,-25.96102 -1.7361,-42.57754 3.6951,-15.07815 11.0142,-25.57223 16.3952,-23.50733 9.1388,3.50689 9.6517,31.30323 0.901,48.83235 -2.8223,5.65363 -4.8008,12.52131 -4.5318,15.73073 0.671,8.00444 -6.1176,8.94119 -11.0283,1.52179 z m -408.7996,-78.29863 c 0.5141,-5.35048 1.5,-10.29342 2.1909,-10.98432 2.7298,-2.72972 5.2042,3.15782 4.6387,11.03718 -0.4569,6.36604 -1.4364,8.47365 -4.1805,8.99474 -3.2276,0.61292 -3.4909,-0.28632 -2.6491,-9.0476 z m 278.8033,-143.54888 c -3.6515,-3.88682 -4.1962,-5.60586 -2.5863,-8.1624 3.0537,-4.84914 7.5604,-4.94306 15.0509,-0.31365 9.1145,5.63302 8.5513,12.0198 -1.1317,12.83509 -5.2033,0.43812 -7.7445,-0.53936 -11.3329,-4.35904 z m -317.6815,-74.22584 c -2.57872,-2.60438 -1.48657,-7.97185 1.89942,-9.33486 1.82819,-0.73592 10.18098,-1.79045 18.56177,-2.34339 12.35311,-0.81503 15.70331,-0.44447 17.69671,1.95745 4.2565,5.12881 -5.5988,9.75311 -22.40363,10.51223 -7.88134,0.35602 -14.97076,-1.2e-4 -15.75427,-0.79143 z"
         id="path4724"
         inkscape:connector-curvature="0" />
    </g>
  </g>
</svg>
